<?xml version="1.0" encoding="utf-8"?>
<!-- Generator: Adobe Illustrator 22.0.1, SVG Export Plug-In . SVG Version: 6.00 Build 0)  -->
<svg version="1.1" id="Layer_1" xmlns="http://www.w3.org/2000/svg" xmlns:xlink="http://www.w3.org/1999/xlink" x="0px" y="0px"
	 viewBox="0 0 1000 627.9" style="enable-background:new 0 0 1000 627.9;" xml:space="preserve">
<style type="text/css">
	.st0{fill:#2D368E;}
	.st1{fill:#293C8C;}
	.st2{fill:#234687;}
	.st3{fill:#1E5184;}
	.st4{fill:#1B5B80;}
	.st5{fill:#18657D;}
	.st6{fill:#156F77;}
	.st7{fill:#0F7B73;}
	.st8{fill:#09836F;}
	.st9{fill:#048F6A;}
	.st10{fill:#009866;}
</style>
<g>
	<path class="st0" d="M37.8,17.8l0.6,8.7c5.5-9,11.3-17.8,17.3-26.4C45.8-0.8,37,7.5,37.8,17.8z"/>
	<path class="st0" d="M995.2,73.2l-13.7-13.8l-15.4-37.3c-2.4-5.9-7.9-9.7-13.8-10.2c17.2,26.1,32.1,54,44.2,83.2
		C1001.6,88.6,1001.1,79.2,995.2,73.2z"/>
	<path class="st1" d="M961.5,133.5l17.8-19.5c-0.4-1.1-0.8-2.1-1.2-3.2c-12.9-32.8-29.3-63.8-49-92.8l-20.7,6.8v4.5
		c19.3,28,35.3,58.1,47.8,90C958,124.1,959.8,128.8,961.5,133.5z"/>
	<path class="st1" d="M41.7,70.4c0.1,2-0.1,4-0.6,5.9l-26.4,89.8l0.1,0.2C5.3,190.2,0,216.1,0,243.2c0,26.9,5.1,52.7,14.3,76.3
		c-0.8-10.1-1.2-20.2-1.3-30.4C12.5,225,24.8,163.3,49.5,106c14.9-34.5,33.9-66.7,56.4-96L80.4,4.9c-14.5,19.9-27.5,40.9-38.8,63
		L41.7,70.4z"/>
	<path class="st2" d="M796.7,601.4l9.5,17c0.7,1.2,1.5,2.3,2.3,3.2c14.4-14.8,29.4-30.3,39.3-41.3c3.8-4.3,7.6-8.6,11.3-13l-10-23.5
		c-5.8,7.3-11.8,14.5-18,21.4C822.3,574.8,809.5,588.2,796.7,601.4z"/>
	<path class="st2" d="M932.6,206.1l17.3-13.6c1-0.8,1.8-1.6,2.6-2.5c-4.4-20.5-10.3-40.5-17.7-59.9c-8.7-22.7-19.3-44.5-31.6-65.1
		c-3.1,8.2-7.4,15.9-13,22.8c9,16.2,16.8,33,23.5,50.4C921.9,160,928.3,182.7,932.6,206.1z"/>
	<path class="st2" d="M37.9,292.7c0.5,28.2,3.8,56.2,9.7,83.5c9.4,11.4,19.9,21.8,31.5,31c-11.5-37.1-17.8-75.8-18.5-115
		c-1.1-58.7,9.3-114.6,30.9-166c16.1-38.3,38.5-74.3,65.8-106.1l-25.3-5c-25.2,31.1-46,65.8-61.4,102.4
		C47.8,171.9,36.8,230.8,37.9,292.7z"/>
	<path class="st3" d="M773.1,559.3l11.1,19.9c10-10.3,19.2-20,26-27.5c9.8-10.9,19-22.3,27.6-34.2l-10.1-23.7
		c-10.1,15.1-21.4,29.6-33.7,43.2C788.5,543.2,781.2,551,773.1,559.3z"/>
	<path class="st3" d="M891.9,295.3c-0.9,27.1-4.7,53.9-11.3,79.9l12-13.3c2.8-3,4.3-7,4.3-11.1v-76.3c0-16.5,4.9-32.4,13.8-45.9
		c-3.5-27.7-10-54.2-19.2-79.3c-5.6-15.2-12.2-29.8-19.6-44l-17,14.6c6.1,11.9,11.5,24.3,16.1,36.9
		C886.5,199.1,893.6,245.6,891.9,295.3z"/>
	<path class="st3" d="M86.3,296c1.4,46.1,11,91.3,27.9,133.9c9.3,4.8,19,8.9,29,12.2c-21.4-45.9-33.4-95.8-35-146.7
		c-1.7-53.2,6.8-103.3,25.3-148.9c17.4-42.9,43.9-82.6,76.9-115.8l-25.4-5.1c-30.5,33-55,71.4-71.8,112.6
		C93.6,186.6,84.5,239.7,86.3,296z"/>
	<path class="st4" d="M844.4,298.4c-3.9,77.7-34.9,152.5-87.3,210.5c-3.8,4.2-8.6,9.3-13.8,14.8l11.4,2.6l5.6,10
		c4.7-4.9,8.9-9.5,12.4-13.3c16.2-18,30.5-37.4,42.7-58.1l-0.9-2.1c-2.5-5.9-1.4-12.8,2.9-17.6l18.5-20.5
		c17.2-39.5,27.3-82,29.4-125.3c2.4-47.6-3.4-91.6-17.2-130.8c-4-11.3-8.7-22.5-14-33.3c-6.2,3.4-12.8,5.9-19.7,7.6
		c5.3,10.6,9.9,21.5,13.8,32.7C841.3,212.2,846.7,253.5,844.4,298.4z"/>
	<path class="st4" d="M155.8,159.1c-16.5,42.4-23.6,89.6-21.2,140.3c2.5,52.7,16.9,104.3,41.7,150.8c5.6,0.9,11.3,1.6,17,2l9.9,3
		c-28.4-47.6-45-101.5-47.7-156.9c-2.3-47.8,4.4-92.1,19.8-131.7c19.2-49.3,51.4-92.4,92-125.3c-8.4-2.4-17-4.2-25.8-5.6
		C204,69.4,174.3,111.6,155.8,159.1z"/>
	<path class="st5" d="M796.9,301.4c-4.8,66.3-32.1,130.1-76.7,179.4c-6.3,7-16.4,17.5-29.6,30.9l23.1,5.3
		c8.2-8.4,15.9-16.5,21.4-22.6c47.7-52.7,76.8-120.7,81.9-191.5c3.1-43.3-0.8-80.9-12.1-115c-5-14.9-11.2-29.3-18.7-42.9
		c-2.6-0.3-5.3-0.7-7.9-1.2l-18.3-3.7c10.7,16.9,19.4,35,25.8,54.1C796.2,225.8,799.9,260.8,796.9,301.4z"/>
	<path class="st5" d="M309.1,511.4l19.1,32.2l13.6,0.9c-8.7-8.8-14.5-14.6-15.9-16C319.9,522.4,314.2,516.7,309.1,511.4z"/>
	<path class="st5" d="M198.3,179.9c-13.4,36.4-18.5,77.8-15.4,122.9c4.1,59,25.2,116.3,60.1,164.5l34.1,10.3
		c-43.3-49.2-69.5-111.6-74-176.2c-3-42.9,1.7-80.3,14.2-114.5c20.8-56.3,61-103.1,112.3-132.4l-28.8-5.7
		C254.4,80.5,218.2,126.2,198.3,179.9z"/>
	<path class="st6" d="M240.9,200.8c-10.5,31-13.6,65.5-9.6,105.5c5.8,58.7,31.2,115.4,71.4,159.6c7.7,8.5,20.8,22,38.9,40.3
		c2.6,2.7,13.9,14.1,29.3,29.5c7.8-4.7,18.2-2.2,23,6l23.2,40.4c10.4,10.5,20.9,21,30.5,30.7c2.6,1.3,5.2,2.4,7.9,3.3l34.6,11.9
		C452.3,590,363.3,500.6,355.4,492.6c-18-18.1-30.9-31.4-38.4-39.7c-37.4-41.2-61-93.9-66.4-148.5c-3.7-37.2-0.9-69.1,8.7-97.3
		c21.9-64.2,76.3-115,141.9-132.6c4.5-1.2,8.9-2.2,13.4-3.1l-41.2-8.2C312,87.1,262.3,138.1,240.9,200.8z"/>
	<path class="st6" d="M695.4,132.2c22.1,22.9,38.6,50.8,47.8,80.7c8,26.3,10,55.4,6.2,91.5c-5.7,54.9-29.2,107.6-66.2,148.3
		c-7.5,8.2-20.4,21.6-38.5,39.7c-3.7,3.8-25.7,25.9-51.9,52.2l12.4,5c3,1.2,6.1,1.5,9.2,0.9c22.6-22.7,40.7-40.9,44.2-44.4
		c18.2-18.3,31.3-31.9,39-40.3c39.7-43.7,65-100.3,71.1-159.3c4-38.7,1.8-70.2-7-99.1c-8.5-27.6-22.2-52.9-40-74.7l-32.6-6.5
		C691.3,128,693.4,130.1,695.4,132.2z"/>
	<path class="st7" d="M499.1,100.5c-4.6-1.2-9.3-2.2-14-3c-24.1-4-48.3-3.2-72,2.4c-61.6,14.7-111.3,61.4-129.6,121.9
		c-7.6,25.4-8.9,53.4-3.8,88.1c6.8,46.8,28.3,92.1,60.6,127.4c6.3,6.9,16.8,17.8,31.3,32.4c10.7,11,104.2,104.7,119.6,120.3
		c0.4-1.4,0.9-2.8,1.7-4.1l8.7-15.1c-0.6,0.6-1.1,1.1-1.7,1.7c-23.9-24-105.2-105.6-115.2-115.7c-14.4-14.5-24.8-25.2-30.9-31.9
		c-29.8-32.7-49.7-74.4-56-117.6c-4.6-31.9-3.6-57.3,3.2-80.1c8-26.3,23-50.4,43.5-69.7c20.5-19.4,45.7-33,72.6-39.4
		c12.3-2.9,24.8-4.4,37.4-4.4c9,0,18.1,0.8,27.1,2.3c4.3,0.7,8.7,1.7,12.9,2.8l0.9,0.2c4.2,0.6,8.4,1.5,12.6,2.5l2.2,0.5l2.2-0.5
		c27.4-6.8,56.2-6,83.2,2.1c50.7,15.5,90.8,56.9,104.6,108.1c7.3,27.1,4.6,54.7,1.4,75.7c-6.5,43.5-26.3,85.2-55.7,117.3
		c-6.1,6.7-16.5,17.4-30.9,31.9c-7.6,7.8-56.9,57.3-90.4,90.9l25-13.6c4.3-2.3,9.5-2.6,14.1-0.8l1,0.4
		c28.5-28.6,57.8-58.1,63.5-63.9c14.6-14.7,25.1-25.6,31.4-32.5c31.8-34.8,53.2-80,60.3-127.1c3.4-22.8,6.3-52.9-1.8-83.3
		c-13.9-51.3-51.3-93.8-99.7-114.6l-69.9-13.9c-12.9,0.1-25.8,1.6-38.4,4.6C506.7,101.9,502.9,101.1,499.1,100.5z"/>
	<path class="st8" d="M671.9,313.7c4.8-21.1,8.5-44,3.4-67.6c-10.5-47.9-48.1-86.5-95.7-98.3c-24.2-5.9-49.2-4.8-72.6,3.2
		c-2.5-0.8-5-1.6-7.6-2.2c-3.7-1.3-7.4-2.4-11.1-3.3c-19.2-4.8-38.7-5.2-58.2-1.5c-50.8,10-91.6,48.7-104.1,98.8
		c-6.3,25.6-2.5,50.2,2,70.8c7.6,34.7,25.3,68.5,49.8,95.1c4.9,5.3,12.7,13.4,23.7,24.5c13.3,13.6,91.3,91.8,92.1,92.6l6.3,6.3
		l6.3-6.3c0.8-0.8,79-79.2,92.3-92.9c4.1-4.1,16.5-16.7,23.8-24.6C646.4,382.4,664,348.8,671.9,313.7z M586,420.5
		c-11.1,11.4-67,67.5-86,86.5c-18.9-19-74.6-74.9-85.7-86.2c-4-4.1-16.2-16.4-23.3-24.1c-22.4-24.3-38.6-55.2-45.5-86.8
		c-4.1-18.7-7.5-40.7-2.1-62.8c5.2-21.1,16.5-40.3,32.6-55.6c16.2-15.4,36.1-25.8,57.6-30c7.5-1.5,15-2.2,22.5-2.2
		c9.4,0,18.8,1.2,28.1,3.4c3.2,0.8,6.5,1.8,9.8,2.9l0.7,0.2c3.2,0.8,6.4,1.8,9.5,2.9l3,1.1l3-1.1c20.9-7.7,43.5-9,65.3-3.7
		c41.1,10.2,73.5,43.5,82.6,84.8c4.1,19.1,1.6,37.8-3.4,59.9c-7.2,32-23.3,62.8-45.2,86.5C602.3,404,590,416.4,586,420.5z"/>
	<path class="st9" d="M557.6,190.1c-18.7-2.9-37.7,0.3-54.1,8.9c-1.1-0.6-2.2-1.1-3.3-1.6c-2.7-1.4-5.4-2.6-8.2-3.7
		c-14.1-5.5-29.5-7.4-44.7-5.5c-40,5.1-72.3,36.3-78.7,76c-3.1,19.6,2.1,37.4,8.2,53.8c4.7,12.8,16.1,37.9,38.8,62.3
		c4.6,4.9,11,11.4,16.1,16.6c15,15.3,61.9,62.3,62.3,62.8l6,6l6-6c0.5-0.5,47.6-47.7,62.7-63.1c5.5-5.5,11.7-11.9,16.2-16.7
		c22-23.6,33.5-48.8,38.4-61.8c5.7-15,11.5-32.7,8.8-52.2C626.7,227.3,596.1,196.1,557.6,190.1z M607.4,312
		c-4.4,11.8-14.9,34.8-34.9,56.2c-4.4,4.7-10.5,10.9-15.9,16.4c-11.8,12.1-43.3,43.7-56.6,57c-13.2-13.3-44.5-44.7-56.2-56.7
		c-5-5.1-11.4-11.6-15.8-16.3c-15.1-16.2-28-36.8-35.3-56.5c-6.1-16.4-9.6-30.4-7.3-45.2c5.2-32.2,31.5-57.6,64.1-61.8
		c3.1-0.4,6.3-0.6,9.4-0.6c9.3,0,18.4,1.7,27,5c2.2,0.9,4.5,1.9,6.7,3.1l0.4,0.2c2.2,1,4.3,2.1,6.3,3.3l4.3,2.5l4.3-2.6
		c14-8.4,30.7-11.6,47.1-9.1c31.1,4.9,55.9,30.1,60.3,61.3C617.4,283.6,612.6,298.3,607.4,312z"/>
	<path class="st10" d="M535.1,232.4c-13,0-25.4,4.7-35.1,13.1c-9.7-8.4-22.1-13.1-35.1-13.1c-29.6,0-53.7,24.1-53.7,53.6
		c0,13.4,5.3,26.4,15.4,37.6c16.1,18,65.6,67.6,67.7,69.7l5.7,5.7l5.7-5.7c2.1-2.1,51.6-51.8,67.7-69.7
		c10.1-11.2,15.4-24.3,15.4-37.6C588.9,256.4,564.8,232.4,535.1,232.4z M561.4,312.8c-12.7,14.1-47.6,49.4-61.4,63.4
		c-13.8-13.9-48.7-49.3-61.4-63.4c-5.2-5.7-11.3-15.1-11.3-26.8c0-20.7,16.9-37.5,37.6-37.5c11.2,0,21.7,4.9,28.9,13.6l6.2,7.5
		l6.2-7.5c7.2-8.6,17.7-13.6,28.9-13.6c20.7,0,37.6,16.8,37.6,37.5C572.7,297.8,566.6,307.1,561.4,312.8z"/>
</g>
</svg>
