<?xml version="1.0" encoding="utf-8"?>
<!-- Generator: Adobe Illustrator 22.0.1, SVG Export Plug-In . SVG Version: 6.00 Build 0)  -->
<svg version="1.1" id="Layer_1" xmlns="http://www.w3.org/2000/svg" xmlns:xlink="http://www.w3.org/1999/xlink" x="0px" y="0px"
	 viewBox="0 0 915.8 575.2" style="enable-background:new 0 0 915.8 575.2;" xml:space="preserve">
<style type="text/css">
	.st0{fill:#E5E5E5;}
	.st1{fill:url(#MI_2_);}
	.st2{fill:url(#IA_2_);}
	.st3{fill:url(#IN_2_);}
	.st4{fill:url(#LA_2_);}
	.st5{fill:url(#OH_2_);}
	.st6{fill:url(#OK_2_);}
	.st7{fill:url(#AL_2_);}
	.st8{fill:url(#AR_2_);}
	.st9{fill:url(#KS_2_);}
	.st10{fill:url(#KY_2_);}
	.st11{fill:url(#SD_2_);}
	.st12{fill:url(#MO_2_);}
	.st13{fill:url(#ND_2_);}
	.st14{fill:url(#NE_2_);}
	.st15{fill:url(#TN_2_);}
	.st16{fill:url(#IL_2_);}
	.st17{fill:url(#MN_2_);}
	.st18{fill:url(#MS_2_);}
	.st19{fill:url(#WI_2_);}
	.st20{fill:#FFFFFF;}
</style>
<g>
	<polyline class="st0" points="39.6,329.9 37.4,331 37.1,330.7 30.9,330.7 32.3,334.3 33.4,336.4 38.8,336.6 38.9,335.6 40.2,336.8 
		45.7,337.1 49.5,334.6 43.8,332.4 39.6,329.9 	"/>
	<path class="st0" d="M58.5,359.2h-2.9v3.7c0,0.2,0,0.7,0.8,2.5l0.1,0.3l2,1.9l4.5-0.6l-2.4-3.8L58.5,359.2"/>
	<polyline class="st0" points="60.4,349 57.4,349.6 57.4,353.5 58.3,353.5 60.7,356.6 63.9,357.9 65.4,354.3 63.9,351.6 60.4,349 	
		"/>
	<path class="st0" d="M444.2,525.8l-1.5-1.2l0-0.1l2.4-0.2l-0.7,1L444.2,525.8 M79.5,20.2l-0.6-0.5l0-0.2l0.8-0.2l-0.3,0.6
		L79.5,20.2 M81.1,0l-2.5,1.4l-0.7,1.9l2.7,5.3l0.8,2l-1.1,2.1l-0.1-0.2l-1.5,1l0.9-2.6l-0.3-0.5l1.4-1.6l-1.7-3.2h-3.8l-0.3,0.3
		l-0.1-0.2l-4.8,0.5l0.9,4.3l2.6,4l0.3-0.3c0.1,0.1,0.2,0.2,0.3,0.3c0.4,0.3,0.9,0.5,1.5,0.5c0.2,0,0.3,0,0.5,0l0.3-0.1l-1.9,1.6
		v1.7l-0.6,0.1l-3-0.9l-3-1.5l-3.1-0.6l-4.3-2l-3-1.8l-2.5-2.4l-2.7-3.2l-4-1l-2.8,11.4l1.9,3.4v7.4l-0.6,3.1l1.7,7.8l0.9,0.9
		l-2.6,0.4l-0.3,6l2.2,0.9l-0.7,1.8l-3,0.3L44.3,53l2.5,3.1l-1.8,0.7L42.4,64l-3.2,9.9l-3.2,6.4l-5,14.2l-6.4,13.4l-8,12.5l-2.1,3.2
		l-0.8,8.9l-1.4,6.6l2.7,3.4l-1.8,5.3l-0.2,7.3l-4.9,11.2l-3.2,2.7L4.5,170l-1.7,0.8L1,175.5l-1,4l3,4.6l1.5,4l1,3.3l-0.3,5.9
		l-1.8,3.1l-0.6,6l-1.1,4.1l2,4.4l2.7,4.6l2.2,4.6l1.2,3.6l-0.2,2.6l-0.3,0.6v3.1l5.6,6.2l-0.3,1.6l-0.6,2.2l-0.7,2.1l0.2,8.8l2.3,4
		l2.3,3.2l2.4,0.5l0.5,1.4l-0.8,2.7l-1.3,1h-1.8l-1.1,5.4l0.6,3.5l3.3,4.5l1.5,5.1l1.5,4.7l1.3,3.2l4.9,8.3l0.6,3.3l1.5,0.9v1.3
		l-0.7,1.6l-1.9,7.3l-0.7,2.7l3.3,3.7l4.6,0.5l4.2,1.7l4.2,2.2h2.6l2.3,2.5l2.5,4.6l1.3,2.7l4.5,2.5l4.4,0.7l0.9,1.3l0.3,1.7
		l-1.6,0.7l0.9,3.1l4,1l2.2,0.2l2.5,4l3.9,4.2l0.7,2l2.6,4.2l0.3,2.8v9.5l0.8,2.9l11,1.6l19.7,2.7l12.1,0.8l-0.9,0.7l-0.5,2.5
		l0.9,1.9l19.2,10.9l12.1,7.6l14.7,8.6l17,10.1l12.6,2.5l25,2.7l0,0.1l18.8,2.4l1.2-9.6l15.2,2.4l13.3,1.6l1,0.3l2.1,2.4l1.6,4.7
		l4.7,2.3l1.2,2.9l7.2,8l1.5,1.9l4.8,2l1,2l1.4,0.9l0.4,2.3l3.1,6.4v8.1l2.6,5.2l7.8,8.2l5.2,2.1l1.2,1.2v0.9l4.6,2.7l2,0.7l1.6,1
		l3.8,1.5l3.1-3.1l4.7-6.5l1-3.7l1.9-2.6l6.9-2.8l2.8,2.1l7.8,0.6l6.3,1l1.7,1.4v0.9l3,3.5l5.7,5.1l0.2,1.4l1.8,1.9l0.7,3.8
		l5.2,12.3l-0.3,2.4l4.7,2.9l3.4,6.3l3.8,4.9l3.2,1.3l0.9,1.3l-1.3,4.3l1.2,2l0.8,0.4l-0.2,1.8l-0.8,0.8l1,3.7l3.2,1.9l1.2,6.1
		l2.4,4.5l8.1,3.6l5.2,1.1l4.2,3.1l4,0.7l1.3-0.5l4.8,1l6.2,4.3l4.2-2.6l1.4-2.1l2.1-0.7l-0.4-2.7l-0.5-5.2l-2.6-7.4l-0.9-5.8
		l0.3-4.9l1.9-6.2l4.2-6.3l5.5-7.5l4.8-3l1.9-1.5l6.1-3.3l5.6-2.4l5.5-3.3l2.8-2.2l5.7-5.3l1.2-0.7l5.1-3.7l0.9-1.8l9.3-4.2l6.7-1.9
		l-0.4-5l1.2-2.9l0.8-7.4l0.6-2.8l-1.2-2.3l2.7-4.4l0.8-8.6l-0.7-0.9l-0.3-3.1l-4.2-6l-0.9-4.4l-2.6-4.4l-0.5-3.8l-0.7-9.4l-0.7-21
		l-3.6-1.4l-2.9,1.1l-2-1.5l-2.7-1.5l-3.5-1.1l-2.9-1.7l-1.8-2.2l-2.6-0.8l-2.1,2h-3l-0.5-1.4h-1.9l-2.7,1.8l-1.6-0.8h-5l-0.8,2.7
		l-1.3,0.6l-2.5-0.8l-3.4-1.3l-4.2-0.8l-1.2-2.1h-1.9l-2,4.2l-1.1,0.2l-4.1-1.6l-0.7-2.4l-3-0.1l-2.1-0.7l-2.5,2.1l-1.5-0.5v-2.3
		l-1.5-0.2l-2.2-3l-3.9-0.9l-2.5,1.7l-2-1.4l-4.4-0.7l-2.3-0.8l-3.4-0.6l0.4-3.3l-4.1-2.1v1.7l-1.2-0.1l-1.9-2.4l-1.1,2.7h-0.4
		l-1.5-0.8l-3.8-3.6l-0.1-1.3l1-17.9l1.8-24.8l-54-2.4l0.3-9.7l1.4,0.1l15.8,0.7l5.9-88.9l-33.1-3.2l4.4-43.5l1.5-25.4l1.6-19.3
		l-0.1,0l1.3-14.6l5.3-57.1l1-15.7L319,47.2l-29.2-3.5l-29.3-4l-32.3-5.3l-18.4-3.4l-32.2-6.8l0,0l-1.4-0.3l-0.5-0.1l0,0l-12.3-2.4
		l-16.2-3.8L124.3,12l-20.1-5.7l-8.5-1.9l-9.6-2.7L81.1,0"/>
	<polyline class="st0" points="762.9,567.6 760.2,569.5 758.8,571.6 757.7,571.8 754.2,572.7 756.2,575.2 759,573.7 763.2,572.2 
		767.4,570.8 766.6,568.6 764.5,568.2 762.9,567.6 	"/>
	<polyline class="st0" points="889.8,165.9 889.2,167.8 887.2,168.5 885.5,170.5 891,170.4 893.3,169.6 891.8,166.1 889.8,165.9 	
		"/>
	<path class="st0" d="M798.7,261.9l-2.9-0.5l1.2,0L798.7,261.9 M876,168.1l-0.6-2.6l0.6-1.1l1.9-1l0.5,2l-0.4,1.3L876,168.1
		 M889.1,102.5l-0.2-1.6l0.8-1.4l-0.4-1.6l-0.8-1l0.7-0.4l1.7,3l1.3-0.3l0.1,0.5v1.1l-0.9-0.7L889.1,102.5 M896.1,97.4l-0.8-0.7
		l0.6-0.8l0.9-0.6l-1.1,1.7L896.1,97.4 M898.7,93.6l0.4-0.7l0.8-0.1c0,0.1,0.1,0.2,0.1,0.3L898.7,93.6 M878.8,31.3l-2,2l-4.3,3.1
		v1.1l-0.3,0.3l-2-0.4l-1-1.8V34l-1.9-0.3l-1.9,0l-2.3,4.6l-2.9,9l-1.9,4.9l0.2,5l0.2,1.3L858,61l-0.9,1.1v6.5l1.8,2.3l-1.3,3.6
		l-2.6,4.7l-0.9,5.8l0,1.7l-0.7-0.2l-2.3,0.3l0,0l-1.3,0.1l-0.4,1l-1.3-1.3l-2.2,2.7l-0.2,2.6l0.1,2.2l-26.6,6.9l0-0.1l-8.3,2.5
		l-4.4,1.5l-3.2-0.2l-5.6,1.3l-3.2,1.2l-2.6,1.9l-2.3,2.6l-2.7,3.7l-2.9,4.6l-1.5,2.8l-0.5,0.7l-6,5.7l0.2,3.2l1,1.4l2.1,0.9h1.2
		v0.6l-1.1,2.2l0.4,1.9l1.4,2l-0.1,1.6l-1.4,0.8h-2.2l-1.8,2.2l-1.8,3.2l-1.8,1.6l-5,0.5l-2.8,1.2l-2,1.2l-1.2-0.1l-2-1.3l-6.6,0.2
		l-3.2,0.5l-4.1,1.3l-4.4,1.5l-3.5,2.2l2.2,7.1l1.8,0.2l1.1,2.6l0.1,0.5l-0.8,0.7l-2.2,2.8l-0.6,1.7l-1.7,1.6l-1.9,1.2l-1,1.7
		l-1.2,1l-1.5,1.2l0-0.2l-6.7,6.5l-1.2,0.4l-4.8,2.9l4.4,26.4l0.7,3.1l-1.3,1.1l-1.2,1.8l1.2,3.2l0,4.7l-0.5,4.9l-0.2,5.4l-2.3,3.9
		l-3,3.3l-2.3,1.6l-2.1-0.5l-1.5,1.6l-3.3,4.9v1.8l0.9,2.9l-0.5,0.6l-1-0.3l-0.9-0.9l-0.9-0.7l-1.8,1.1l-1,3.9l-0.1,5l-1.7,1.5v2.1
		l-1.3,0.7l-2.1,0.2l-1.2-0.4l0.2,6.8l0.8,1.6l2.7,1.7l0.5,2.2l3.1,3.9l2.5,2.5l3.3,2.1l-2.3,2.6l-4.1,3.7l-5.9,7.6v1.9l-3.8,2.1
		l-4.1,2.6l0.5,1.4l6.7-0.6l10.2-1.6l7.5-0.1l2.5-1.9l1.6,0.2l-0.1,3.6l-0.4,1.5l-2.5,2.4l-1.6,3.6l-2.2-0.3l-2.1,0.5l-2.3,3.5
		l-1.7-0.1l-1-1.4l-4.9,4.5l-0.7,3.1l-4.1,2.1l-4.5,3.7l-3.8,1.5l-4.3,2.7l-0.7,3.6l-2.4,0.6l-2.1,1.6l-0.1,4.8l-4.5,0.5l-13.6,1.6
		l-4,0.4l-0.1,3l0.8,5.4l3.5,8.1l3.8,16l1.7,4.7l1.5,7.1l1.9,6.3l2.8,3.4l0.4,3.4l1.9,0.7l0.1,1.9l-1.6,4.6l-0.9,5.2l1.6,4.6
		l0.4,5.2l-1,2.5l0.9,0.9l1.5,0.9l0.6,2.7l-5.9,0l-6.6,0.5l-36,4.3l-0.4,3.8l1.9,1.9l2.7,1.9l0.3,8.9l4.2-0.8l6-2.1l5.9-0.5l4.3-0.6
		l7.4,1.7l7.9,3.8l1.6,1.5l2.9,1.1l1.3,1.6l0.4,3.5l4-1.6h3.9l3.8-2l3.6-3.5l3.3,0.2l0.9-2l-0.9-1.1l0.1-1l3.4-0.7h2.3l2.7,1.4
		l4.1,1.5l2.4,3.7l2.6,1l1.1,3.4l3.5,1.6l1.6,2.6l2.2,0.7l4.8,1.2l1.2,2.8l2.9,3.7v9.1l-1.5,4.7l0.3,2.9l1.3,4.9l2.2,4.9l1.8-1.1
		l1.8-5.4l-2.4-0.9l0.2-0.1l3.8,0.8l0.1,0.8l-3,5.2l-2.5,2.9l4,4.2l2.6,3l2.9,5.2l2.9,3.9l2.2,5.3l2.7,0.4l1.5-1.9l1.1,0.7l2.4,3.7
		l0.6,3.6l3.9,5.5l1.2-1.9l3.3,0.2l3.3,2.1l3.2,5l0.8,3.2l0.3,3.2l1.4,1.3l1.7,0.7l2.8-1.2l1.4-1.5l3.7-0.2l3.4-1.6l0.3-0.4
		l-2.8,4.6l-4.3,4.1L771,566l-3.2,2l2.4,2.2l8.5-6.7l3.9-4.1l2.5-6.7l1.1-1.8l0.3-5.1l-2.2,1.5l-0.8,2.2l-0.2-1.8l0.6-1.9l-0.2-1.5
		l2.3-1.2l0.3-4l-0.6-1.8l-0.5-12l-1.3-7.6l-4.6-8.5l-3.6-5.7l-2.6-5.3l-2.9-3l-2.7-6.9l0.5-1l1.4-1.6l-1.8-3.4l-4.1-3.8l-4.8-5.4
		l-3.7-6.2l-5.3-9.4l-3.7-9.6l-2.3-7.3l0,0l-0.9-7.1l2.2-9.8l1.6-4.4l-0.5-2.5l3.3-6.3l-0.6-1.8l0.2-0.1l2.4-1.7l5.4-5.7l-0.8-2.7
		l2.2-0.2l3.7-3.5l1.7-0.8l2.4-3.5l2.6-2.6l2.1-3.5l2.5-0.6l1.1-2.8l1.7-0.9l0.5-6.6l2.5-5.9l5.6-5.7l5-1.5l5.2-0.6l0.6-2.9l1.9-6.4
		l3.3-4.5l6.4-5.2l5-2.3l2.4-0.5l1,0.5h1.9l3.4-5.2l2.8-5.4l-3.3,1.3l-1.6,1.6l-0.4-1h-3.7l1.7-5.7l-0.8-1.2l2.6,0.3l4.2-1.8
		l1.4-3.2l0.5-1.9l2.7-1.3l0.3-4.6l1-0.1l0.1,0.5l1.5,2.3l0.6,5.8l-0.1,1.5l-1.1,0.4l-3.4,2.8l-3.7,3.5l2.9,0.5l1.3-1.4l2.7-2.3
		l3.7-1.6l0.2-3.9l-0.4-4.5l-3.1-6.3l-1.2,0.3l-0.3-1l-2.5-2.5l-3.5-6.3l-2-4.9l0,0l-0.1-0.2l-0.1-0.3l-0.1,0l-4.3-7.1l-5.9,1.7
		l-0.5-0.5l2.2-1.2l-0.7-3.3l-1.8-1.8l-0.1-1.5l-2.3-1.5l0-0.4l2.5,0.1l0.4-2.5l-1.1-0.8l0.5-1.9l-1.5-1.2l0.4-4.6l-1.3-1.7
		l-3.3-0.4l-2-1.9l1.7,0.2l1.4-3l-1.6-2.3v-1.9l-2.5-2.2l-1.9-5.1l1.3-5.2l-0.2-2.5l-1-1c0.6-0.7,1.2-1.6,1.2-2.3
		c0-0.3,0.2-1,0.4-1.6l1.4-1l-1.4,3.9l0.5,1.8l1.7,0.3l0.4,4.4l-2.1,1l0.4,5.1l1.7-0.7l0.7-1.2l0.4,0.4l-1.2,1l-0.4,4l3,3.9l2.2,0.3
		l-0.3,0.1l1.4,3.2l0.2,1.8l1.7,2.9l0.7-0.7c1.1-1.1,1.1-1.5,1.1-1.7c0-0.1,0-0.4-0.7-3.3l-0.8-2.6l0.1-0.1l2.9,3.9l1.5,0.6l0.7-0.3
		l0.1,1.6l-0.7,3.1l-1.6,4.1l-0.5,5.8l1.9,5.8l3.2-2.8l1.9-5.4l-0.5-3.5l0.4-4.3l2.9-3.8l0.3-3.9l1.7-3.7l0.7-6l-0.3,0.1l-2.7-8.5
		l-1.4,0.7l-3-2l-1.8-4.6l-2-3.8l-2.3-1l-1.8-3.1l0.1-0.5l0.8,1.5l3.3,3l5,2.4l3.7,0.6l0.1,0.6l-0.8,1l0.4,3.7h1.8l2.5-2.8l0.8-4.8
		l2.6-3.9l3.2-6.6l1.2-5.9l-0.6-1.2l-0.2-9.4l-2.1-4.4l-1.7,1.2l-1.4,0.2l2.5-2.2l0-0.3l1.1,0.4l4.3-1.2l5.8-1.9l2.6-1l11.2-8.3
		l4.3-4.5l-5.7-2.2l-1.6,1.9l-2.8,2.6l-7.6,3.8l-2-0.2l-1.8-0.7l-1.4,0.8L835,192l-1.4,1.2l-0.4,0.1l0-0.2l2-1.9l-0.5-0.9l5.3-3.6
		l3.7-3.3l1.4-1.6l0.6,0.5l3-1.7l5.1-1.1l7.2-3.6l0,0.1l3.7-1.4l2.6-2l1-1.6l1,0.2l3.8-1.9l0,0l2.3-1l-0.1,0.1v3l1.7-1.3l2,1.7
		l2.6-1.2l3.5-1.5l-3-2.5h-1.8l1.9-2.1l3.7-1.8l4.8-1.7l-0.4-3l-1-3.1l-2.1-2.8l-2.1-1l-2.6,0.2l-1.2,1.2l1.8,2.3l1.6-0.9l1.5,1.2
		l0.6,2l-1.4,1.4l-2,0.9l-3.1-0.4l-3.7-5.7l-2.6-2.9H872l-0.7,0.5l-1.3-1.7l0.2-1.1l2.5-5.5l-3.3-5l0.5-0.6l1.2-3.6l0.1,0l1.3-7.3
		l0.2-4.1l1.6-1.4l-1-3.3l2.3-2.7l1.4,1.3l1.7-0.7l5.7-3.3l0.3-2.7l2.7-0.5l1.9-3.1l-0.3-2.8l2.4,3.8l2.8-1.5l-0.7-3l2,0.2l0.6-3.2
		l0.8-0.9l1.2,1.2l0.3,0c0.2,0,0.4,0,0.5,0c0.9,0,1.2-0.2,1.3-0.3l0.3-0.3l0-0.3c0-0.1,0.1-0.9,0.2-1.6l1.1-1l-0.5-1.1
		c0.1,0,0.2,0,0.3,0h1.6l5-5.7l3.3-3l2.1-0.7l2.3-5.2v-2.3l-2.4-3.9l-2.3-2.5l-4.2,0.7l0.5,1.2l-2.1-1.7l-0.2-4.5l-1.1-2.6h-5.9
		l-8.9-29.4l-0.1-0.3l-2.2-1.2l-6-2.4L878.8,31.3"/>
</g>
<g>
	<g>
		<radialGradient id="MI_2_" cx="541.699" cy="258.3303" r="304.6177" gradientUnits="userSpaceOnUse">
			<stop  offset="0" style="stop-color:#019966"/>
			<stop  offset="1" style="stop-color:#0D2C6C"/>
		</radialGradient>
		<path id="MI_1_" class="st1" d="M632.1,206.2l19.1-1.9l0.2,1.1l9.9-1.5l12-1.7l0.1-0.6l0.2-1.5l2.1-3.7l2-1.7l-0.2-5.1l1.6-1.6
			l1.1-0.3l0.2-3.6l1.5-3l1.1,0.6l0.2,0.6l0.8,0.2l1.9-1l-0.4-9.1l-3.2-8.2l-2.3-9.1l-2.4-3.2l-2.6-1.8l-1.6,1.1l-3.9,1.8l-1.9,5
			l-2.7,3.7l-1.1,0.6l-1.5-0.6c0,0-2.6-1.5-2.4-2.1c0.2-0.6,0.5-5,0.5-5l3.4-1.3l0.8-3.4l0.6-2.6l2.4-1.6l-0.3-10l-1.6-2.3l-1.3-0.8
			l-0.8-2.1l0.8-0.8l1.6,0.3l0.2-1.6l-2.6-2.2l-1.3-2.6h-2.6l-4.5-1.5l-5.5-3.4H647l-0.6,0.6l-1-0.5l-3.1-2.3l-2.9,1.8l-2.9,2.3
			l0.3,3.6l1,0.3l2.1,0.5l0.5,0.8l-2.6,0.8l-2.6,0.3l-1.5,1.8l-0.3,2.1l0.3,1.6l0.3,5.5l-3.6,2.1l-0.6-0.2v-4.2l1.3-2.4l0.6-2.4
			l-0.8-0.8l-1.9,0.8l-1,4.2l-2.7,1.1l-1.8,1.9l-0.2,1l0.6,0.8l-0.6,2.6l-2.3,0.5v1.1l0.8,2.4l-1.1,6.1l-1.6,4l0.6,4.7l0.5,1.1
			l-0.8,2.4l-0.3,0.8l-0.3,2.7l3.6,6l2.9,6.5l1.5,4.8l-0.8,4.7l-1,6l-2.4,5.2l-0.3,2.7l-3.2,3.1L632.1,206.2z M598.8,133.8l-1.3-1.1
			l-1.8-10.4L592,121l-1.7-2.3l-12.6-2.8l-2.8-1.1l-8.1-2.2l-7.8-1l-3.9-5.3l0.7-0.5l2.7-0.8l3.6-2.3v-1l0.6-0.6l6-1l2.4-1.9
			l4.4-2.1l0.2-1.3l1.9-2.9l1.8-0.8l1.3-1.8L583,87l4.4-2.4l4.7-0.5l1.1,1.1l-0.3,1l-3.7,1l-1.5,3.1l-2.3,0.8l-0.5,2.4l-2.4,3.2
			l-0.3,2.6l0.8,0.5l1-1.1l3.6-2.9l1.3,1.3h2.3l3.2,1l1.5,1.1l1.5,3.1l2.7,2.7l3.9-0.2l1.5-1l1.6,1.3l1.6,0.5l1.3-0.8h1.1l1.6-1
			l4-3.6l3.4-1.1l6.6-0.3l4.5-1.9l2.6-1.3l1.5,0.2v5.7l0.5,0.3l2.9,0.8l1.9-0.5l6.1-1.6l1.1-1.1l1.5,0.5v7l3.2,3.1l1.3,0.6l1.3,1
			l-1.3,0.3l-0.8-0.3l-3.7-0.5l-2.1,0.6l-2.3-0.2l-3.2,1.5h-1.8l-5.8-1.3l-5.2,0.2l-1.9,2.6l-7,0.6l-2.4,0.8l-1.1,3.1l-1.3,1.1
			l-0.5-0.2l-1.5-1.6l-4.5,2.4h-0.6l-1.1-1.6l-0.8,0.2l-1.9,4.4l-1,4l-3.2,6.9L598.8,133.8z M569.2,77.3l1.8-2.1l2.2-0.8l5.4-3.9
			l2.3-0.6l0.5,0.5l-5.1,5.1l-3.3,1.9l-2.1,0.9L569.2,77.3z M655.4,109.4l0.6,2.5l3.2,0.2l1.3-1.2c0,0-0.1-1.5-0.4-1.6
			c-0.3-0.2-1.6-1.9-1.6-1.9l-2.2,0.2l-1.6,0.2l-0.3,1.1L655.4,109.4z"/>
		<g>
			<radialGradient id="IA_2_" cx="541.699" cy="258.3303" r="304.6177" gradientUnits="userSpaceOnUse">
				<stop  offset="0" style="stop-color:#019966"/>
				<stop  offset="1" style="stop-color:#0D2C6C"/>
			</radialGradient>
			<path id="IA_1_" class="st2" d="M544.4,178.8l2.1,2.1l0.3,0.7l-2,3l0.3,4l2.6,4.1l3.1,1.6l2.4,0.3l0.9,1.8l0.2,2.4l2.5,1l0.9,1.1
				l0.5,1.6l3.8,3.3l0.6,1.9l-0.7,3l-1.7,3.7l-0.6,2.4l-2.1,1.6l-1.6,0.5l-5.7,1.5l-1.6,4.8l0.8,1.8l1.7,1.5l-0.2,3.5l-1.9,1.4
				l-0.7,1.8v2.4l-1.4,0.4l-1.7,1.4l-0.5,1.7l0.4,1.7l-1.3,1l-2.3-2.7l-1.4-2.8l-8.3,0.8l-10,0.6l-49.2,1.2l-1.6-4.3l-0.4-6.7
				l-1.4-4.2l-0.7-5.2l-2.2-3.7l-1-4.6l-2.7-7.8l-1.1-5.6l-1.4-1.9l-1.3-2.9l1.7-3.8l1.2-6.1l-2.7-2.2l-0.3-2.4l0.7-2.4l1.8-0.3
				l61.1-0.6l21.2-0.7L544.4,178.8z"/>
			<radialGradient id="IN_2_" cx="541.699" cy="258.3303" r="304.6177" gradientUnits="userSpaceOnUse">
				<stop  offset="0" style="stop-color:#019966"/>
				<stop  offset="1" style="stop-color:#0D2C6C"/>
			</radialGradient>
			<path id="IN_1_" class="st3" d="M610.5,211.3l1.5,1l1.1-0.3l2.1-1.9l2.5-1.8l14.3-1.1l18.4-1.8l1.6,15.5l4.9,42.6l-0.6,2.9
				l1.3,1.6l0.2,1.3l-2.3,1.6l-3.6,1.7l-3.2,0.4l-0.5,4.8l-4.7,3.6l-2.9,4l0.2,2.4l-0.5,1.4h-3.5l-1.4-1.7l-5.2,3l0.2,3.1l-0.9,0.2
				l-0.5-0.9l-2.4-1.7l-3.6,1.5l-1.4,2.9l-1.2-0.6l-1.6-1.8l-4.4,0.5l-5.7,1l-2.5,1.3v-2.6l0.4-4.7l2.3-2.9l1.8-3.9l2.7-4.2
				l-0.5-5.8l-1.8-3.1l-0.3-3.2l0.8-5.3l-0.7-7.1l-0.9-12.6l-2.5-30.1L610.5,211.3z"/>
			<radialGradient id="LA_2_" cx="541.699" cy="258.3303" r="304.6177" gradientUnits="userSpaceOnUse">
				<stop  offset="0" style="stop-color:#019966"/>
				<stop  offset="1" style="stop-color:#0D2C6C"/>
			</radialGradient>
			<path id="LA_1_" class="st4" d="M514.5,481.1l8.1-0.3l10.3,3.6l6.5,1.1l3.7-1.5l3.2,1.1l3.2,1l0.8-2.1l-3.2-1.1l-2.6,0.5
				l-2.7-1.6l0.8-1.5l3.1-1l1.8,1.5l1.8-1l3.2,0.6l1.5,2.4l0.3,2.3l4.5,0.3l1.8,1.8l-0.8,1.6l-1.3,0.8l1.6,1.6l8.4,3.6l3.6-1.3
				l1-2.4l2.6-0.6l1.8-1.5l1.3,1l0.8,2.9l-2.3,0.8l0.6,0.6l3.4-1.3l2.3-3.4l0.8-0.5l-2.1-0.3l0.8-1.6l-0.2-1.5l2.1-0.5l1.1-1.3
				l0.6,0.8l0.6,3.1l4.2,0.6l4,1.9l1,1.5h2.9l1.1,1l2.3-3.1v-1.5h-1.3l-3.4-2.7l-5.8-0.8l-3.2-2.3l1.1-2.7l2.3,0.3l0.2-0.6l-1.8-1
				v-0.5h3.2l1.8-3.1l-1.3-1.9l-0.3-2.7l-1.5,0.2l-1.9,2.1l-0.6,2.6l-3.1-0.6l-1-1.8l1.8-1.9l1.9-1.7l-2.2-6.5l-3.4-3.4l1-7.3
				l-0.2-0.5l-1.3,0.2l-33.1,1.4l-0.8-2.4l0.8-8.5l8.6-14.8l-0.9-2.6l1.4-0.4l0.4-2l-2.2-2l0.1-1.9l-2-4.5l-0.4-5.1l0.1-0.7
				l-26.4,0.8l-25.2,0.1l0.4,9.7l0.7,9.5l0.5,3.7l2.6,4.5l0.9,4.4l4.3,6l0.3,3.1l0.6,0.8l-0.7,8.3l-2.8,4.6l1.2,2.4l-0.5,2.6
				l-0.8,7.3l-1.3,3l0.2,3.7L514.5,481.1z"/>
			<radialGradient id="OH_2_" cx="541.699" cy="258.3303" r="304.6177" gradientUnits="userSpaceOnUse">
				<stop  offset="0" style="stop-color:#019966"/>
				<stop  offset="1" style="stop-color:#0D2C6C"/>
			</radialGradient>
			<path id="OH_1_" class="st5" d="M651.4,206.4l1.7,15.5l4.8,41.1l3.9-0.2l2.3-0.8l3.6,1.8l1.7,4.2l5.4,0.1l1.8,2h1.7l2.4-1.4
				l3.1,0.5l1.5,1.3l1.8-2l2.3-1.4l2.4-0.4l0.6,2.7l1.6,1l2.6,2l0.8,0.2l2-0.1l1.2-0.6v-2.1l1.7-1.5l0.1-4.8l1.1-4.2l1.9-1.3l1,0.7
				l1,1.1l0.7,0.2l0.4-0.4l-0.9-2.7v-2.2l1.1-1.4l2.5-3.6l1.3-1.5l2.2,0.5l2.1-1.5l3-3.3l2.2-3.7l0.2-5.4l0.5-5v-4.6l-1.2-3.2
				l1.2-1.8l1.3-1.2l-0.6-2.8l-4.3-25.6l-6.2,3.7l-3.9,2.3l-3.4,3.7l-4,3.9l-3.2,0.8l-2.9,0.5l-5.5,2.6l-2.1,0.2l-3.4-3.1l-5.2,0.6
				l-2.6-1.5l-2.2-1.3L651.4,206.4z"/>
			<radialGradient id="OK_2_" cx="541.699" cy="258.3303" r="304.6177" gradientUnits="userSpaceOnUse">
				<stop  offset="0" style="stop-color:#019966"/>
				<stop  offset="1" style="stop-color:#0D2C6C"/>
			</radialGradient>
			<path id="OK_1_" class="st6" d="M399.5,330.1l-1.8,24.3l-0.9,18l0.2,1.6l4,3.6l1.7,0.9h0.9l0.9-2.1l1.5,1.9l1.6,0.1l0.3-0.2
				l0.2-1.1l2.8,1.4l-0.4,3.5l3.8,0.5l2.5,1l4.2,0.6l2.3,1.6l2.5-1.7l3.5,0.7l2.2,3.1l1.2,0.1v2.3l2.1,0.7l2.5-2.1l1.8,0.6l2.7,0.1
				l0.7,2.3l4.4,1.8l1.7-0.3l1.9-4.2h1.3l1.1,2.1l4.2,0.8l3.4,1.3l3,0.8l1.6-0.7l0.7-2.7h4.5l1.9,0.9l2.7-1.9h1.4l0.6,1.4h3.6l2-1.8
				l2.3,0.6l1.7,2.2l3,1.7l3.4,0.9l1.9,1.2l-0.3-37.6l-1.4-10.9l-0.1-8.6l-1.5-6.6l-0.6-6.8l0.1-4.3l-12.6,0.3l-46.3-0.5l-44.7-2.1
				l-41.5-1.8l-0.4,10.7L399.5,330.1z"/>
		</g>
		<g>
			<radialGradient id="AL_2_" cx="541.699" cy="258.3303" r="304.6177" gradientUnits="userSpaceOnUse">
				<stop  offset="0" style="stop-color:#019966"/>
				<stop  offset="1" style="stop-color:#0D2C6C"/>
			</radialGradient>
			<path id="AL_1_" class="st7" d="M616.1,461.6l0.6,0.2l1.3-2.7l1.5-4.4l2.3,0.6l3.1,6v1l-2.7,1.9l2.7,0.3l5.2-2.5l-0.3-7.6
				l-2.5-1.8l-2-2l0.4-4l10.5-1.5l25.7-2.9l6.7-0.6l5.6,0.1l-0.5-2.2l-1.5-0.8l-0.9-1.1l1-2.6l-0.4-5.2l-1.6-4.5l0.8-5.1l1.7-4.8
				l-0.2-1.7l-1.8-0.7l-0.5-3.6l-2.7-3.4l-2-6.5l-1.4-6.7l-1.8-5l-3.8-16l-3.5-7.9l-0.8-5.6l0.1-2.2l-9,0.8l-23.4,2.2l-12.2,0.8
				l-0.2,6.4l0.2,16.7l-0.7,31l-0.3,14.1l2.8,18.8l1.6,14.7L616.1,461.6z"/>
			<radialGradient id="AR_2_" cx="541.699" cy="258.3303" r="304.6177" gradientUnits="userSpaceOnUse">
				<stop  offset="0" style="stop-color:#019966"/>
				<stop  offset="1" style="stop-color:#0D2C6C"/>
			</radialGradient>
			<path id="AR_1_" class="st8" d="M574.9,341.3l-6.4-0.7l0.9-3.1l3.1-2.6l0.6-2.3l-1.8-2.9l-31.9,1.2l-23.3,0.7l-23.6,0.3l1.5,6.9
				l0.1,8.5l1.4,10.9l0.3,38.2l2.1,1.6l3-1.2l2.9,1.2l0.4,10.1l25.2-0.2l26.8-0.8l0.9-1.9l-0.3-3.8l-1.7-3.1l1.5-1.4l-1.4-2.2
				l0.7-2.4l1.1-5.9l2.7-2.3l-0.8-2.2l4-5.6l2.5-1.1l-0.1-1.7l-0.5-1.7l2.9-5.8l2.5-1.1l0.2-3.3l2.1-1.4l0.9-4.1l-1.4-4l4.2-2.4
				l0.3-2.1l1.2-4.2l0.9-3.1L574.9,341.3z"/>
			<radialGradient id="KS_2_" cx="541.699" cy="258.3303" r="304.6177" gradientUnits="userSpaceOnUse">
				<stop  offset="0" style="stop-color:#019966"/>
				<stop  offset="1" style="stop-color:#0D2C6C"/>
			</radialGradient>
			<path id="KS_1_" class="st9" d="M473.5,254.7l-43.8-0.6l-40.6-1.2l-21.7-0.9l-4.3,64.8l24.3,1l44.7,2.1l46.3,0.6l12.6-0.3l0.7-35
				l-1.2-11.1l-2.5-2l-2.4-3l-2.3-3.6l0.6-3l1.7-1.4V259l-0.8-0.7l-2.6-0.2l-3.5-3.4L473.5,254.7z"/>
			<radialGradient id="KY_2_" cx="541.699" cy="258.3303" r="304.6177" gradientUnits="userSpaceOnUse">
				<stop  offset="0" style="stop-color:#019966"/>
				<stop  offset="1" style="stop-color:#0D2C6C"/>
			</radialGradient>
			<path id="KY_1_" class="st10" d="M594.8,327l12.6-0.7l0.1-4.1h4.3l30.4-3.2l45.1-4.3l5.6-3.6l3.9-2.1l0.1-1.9l6-7.8l4.1-3.6
				l2.1-2.4l-3.3-2l-2.5-2.7l-3-3.8l-0.5-2.2l-2.6-1.4l-0.9-1.9l-0.2-6.1l-2.6-2l-1.9-1.1l-0.5-2.3l-1.3,0.2l-2,1.2l-2.5,2.7
				l-1.9-1.7l-2.5-0.5l-2.4,1.4h-2.3l-1.8-2l-5.6-0.1l-1.8-4.5l-2.9-1.5l-2.1,0.8l-4.2,0.2l-0.5,2.1l1.2,1.5l0.3,2.1l-2.8,2
				l-3.8,1.8l-2.6,0.4l-0.5,4.5l-4.9,3.6l-2.6,3.7l0.2,2.2l-0.9,2.3l-4.5-0.1l-1.3-1.3l-3.9,2.2l0.2,3.3l-2.4,0.6l-0.8-1.4l-1.7-1.2
				l-2.7,1.1l-1.8,3.5l-2.2-1l-1.4-1.6l-3.7,0.4l-5.6,1l-2.8,1.3l-1.2,3.4l-1,1l1.5,3.7l-4.2,1.4l-1.9,1.4l-0.4,2.2l1.2,2.4v2.2
				l-1.6,0.4l-6.1-2.5l-2.3,0.9l-2,1.4l-0.8,1.8l1.7,2.4l-0.9,1.8l-0.1,3.3l-2.4,1.3l-2.1,1.7L594.8,327z"/>
			<radialGradient id="SD_2_" cx="541.699" cy="258.3303" r="304.6177" gradientUnits="userSpaceOnUse">
				<stop  offset="0" style="stop-color:#019966"/>
				<stop  offset="1" style="stop-color:#0D2C6C"/>
			</radialGradient>
			<path id="SD_1_" class="st11" d="M458.6,176.3l-0.9,3.2l0.4,3l2.6,2l-1.2,5.4l-1.8,4.1l1.5,3.3l0.7,1.1l-1.3,0.1l-0.7-1.6l-0.6-2
				l-3.3-1.8l-4.8-1.5l-2.5-1.3l-2.9,0.1l-3.9,0.4l-3.8,1.2l-5.3-3.8l-2.7-2.4l-10.9,0.8l-41.5-2.4l-35.6-2.2l1.5-24.8l2.8-34l0.4-5
				l56.9,3.9l56.9,1.7v2.7l-1.3,1.5l-2,1.5l-0.1,2.2l1.1,2.2l4.1,3.4l0.5,2.7v35.9L458.6,176.3z"/>
		</g>
		<g>
			<radialGradient id="MO_2_" cx="541.699" cy="258.3303" r="304.6177" gradientUnits="userSpaceOnUse">
				<stop  offset="0" style="stop-color:#019966"/>
				<stop  offset="1" style="stop-color:#0D2C6C"/>
			</radialGradient>
			<path id="MO_1_" class="st12" d="M580.7,333.9l0.5-5.9l4.2-3.4l1.9-1v-2.9l0.7-1.6l-1.1-1.6l-2.4,0.3l-2.1-2.5l-1.7-4.5l0.9-2.6
				l-2-3.2l-1.8-4.6l-4.6-0.7l-6.8-5.6l-2.2-4.2l0.8-3.3l2.2-6l0.6-3l-1.9-1L559,276l-1.1-1.9V270l-5.3-3.5l-7.2-7.8l-2.3-7.3
				l-0.5-4.2l0.7-2.4l-2.6-3.1l-1.2-2.4l-7.7,0.8l-10,0.6l-48.8,1.2l1.3,2.6l-0.1,2.2l2.3,3.6l3,3.9l3.1,3l2.6,0.2l1.4,1.1v2.9
				l-1.8,1.6l-0.5,2.3l2.1,3.2l2.4,3l2.6,2.1l1.3,11.6l-0.8,40l0.5,5.7l23.7-0.2l23.3-0.7l32.5-1.3l2.2,3.7l-0.8,3.1l-3.1,2.5
				l-0.5,1.8l5.2,0.5l4.1-1.1L580.7,333.9z"/>
			<radialGradient id="ND_2_" cx="541.699" cy="258.3303" r="304.6177" gradientUnits="userSpaceOnUse">
				<stop  offset="0" style="stop-color:#019966"/>
				<stop  offset="1" style="stop-color:#0D2C6C"/>
			</radialGradient>
			<path id="ND_1_" class="st13" d="M458.6,121.6l-0.4-6.2l-1.8-7.3l-1.8-13.6l-0.5-9.7l-1.9-3.2l-1.6-5.3V65.9l0.6-3.8l-1.8-5.5
				l-28.6-0.6l-18.6-0.6L375.7,54l-25.2-2.2l-0.9,14.4l-4.7,50.9l56.8,3.9l56.9,1.7V121.6z"/>
			<radialGradient id="NE_2_" cx="541.699" cy="258.3303" r="304.6177" gradientUnits="userSpaceOnUse">
				<stop  offset="0" style="stop-color:#019966"/>
				<stop  offset="1" style="stop-color:#0D2C6C"/>
			</radialGradient>
			<path id="NE_1_" class="st14" d="M457.9,199.5l-1-2.3l-0.5-1.6l-2.9-1.6l-4.8-1.5l-2.2-1.2l-2.6,0.1l-3.7,0.4L436,193l-6-4.1
				l-2.2-2l-10.7,0.6l-41.5-2.4l-35.6-2.2l-4.3,43.7l33.1,3.3l-1.4,21.1l21.7,1l40.6,1.2l43.8,0.6h4.5l-2.2-3l-2.6-3.9l0.1-2.3
				l-1.4-2.7l-1.9-5.2l-0.4-6.7l-1.4-4.1l-0.5-5l-2.3-3.7l-1-4.7l-2.8-7.9l-1-5.3L457.9,199.5z"/>
			<radialGradient id="TN_2_" cx="541.699" cy="258.3303" r="304.6177" gradientUnits="userSpaceOnUse">
				<stop  offset="0" style="stop-color:#019966"/>
				<stop  offset="1" style="stop-color:#0D2C6C"/>
			</radialGradient>
			<path id="TN_1_" class="st15" d="M658.4,354.8l-13.1,1.2l-23.3,2.2l-37.6,2.7l-11.8,0.4l0.9-0.6l0.9-4.5l-1.2-3.6l3.9-2.3
				l0.4-2.5l1.2-4.3l3-9.5l0.5-5.6l0.3-0.2l12.3-0.2l13.6-0.8l0.1-3.9l3.5-0.1l30.4-3.3l54-5.2l10.3-1.5l7.6-0.2l2.4-1.9l1.3,0.3
				l-0.1,3.3l-0.4,1.6l-2.4,2.2l-1.6,3.6l-2-0.4l-2.4,0.9l-2.2,3.3l-1.4-0.2l-0.8-1.2l-1.1,0.4l-4.3,4l-0.8,3.1l-4.2,2.2l-4.3,3.6
				l-3.8,1.5l-4.4,2.8l-0.6,3.6l-2.5,0.5l-2,1.7l-0.2,4.8L658.4,354.8z"/>
		</g>
		<g>
			<radialGradient id="IL_2_" cx="541.699" cy="258.3303" r="304.6177" gradientUnits="userSpaceOnUse">
				<stop  offset="0" style="stop-color:#019966"/>
				<stop  offset="1" style="stop-color:#0D2C6C"/>
			</radialGradient>
			<path id="IL_1_" class="st16" d="M606.3,209.5l-0.8-2.6l-1.3-3.7l-1.6-1.8l-1.5-2.6l-0.4-5.5l-15.9,1.8l-17.4,1h-12.3l0.2,2.1
				l2.2,0.9l1.1,1.4l0.4,1.4l3.9,3.4l0.7,2.4l-0.7,3.3l-1.7,3.7l-0.8,2.7l-2.4,1.9l-1.9,0.6l-5.2,1.3l-1.3,4.1l0.6,1.1l1.9,1.8
				l-0.2,4.3l-2.1,1.6l-0.5,1.3v2.8l-1.8,0.6l-1.4,1.2l-0.4,1.2l0.4,2l-1.6,1.3l-0.9,2.8l0.3,3.9l2.3,7l7,7.6l5.7,3.7v4.4l0.7,1.2
				l6.6,0.6l2.7,1.4l-0.7,3.5l-2.2,6.2l-0.8,3l2,3.7l6.4,5.3l4.8,0.8l2.2,5.1l2,3.4l-0.9,2.8l1.5,3.8l1.7,2.1l1.6-0.3l1-2.2l2.4-1.7
				l2.8-1l6.1,2.5l0.5-0.2v-1.1l-1.2-2.7l0.4-2.8l2.4-1.6l3.4-1.2l-0.5-1.3l-0.8-2l1.2-1.3l1-2.7v-4l0.4-4.9l2.5-3l1.8-3.8l2.5-4
				l-0.5-5.3l-1.8-3.2l-0.3-3.3l0.8-5.3l-0.7-7.2l-1.1-15.8l-1.4-15.3l-0.9-11.7L606.3,209.5z"/>
			<radialGradient id="MN_2_" cx="541.699" cy="258.3303" r="304.6177" gradientUnits="userSpaceOnUse">
				<stop  offset="0" style="stop-color:#019966"/>
				<stop  offset="1" style="stop-color:#0D2C6C"/>
			</radialGradient>
			<path id="MN_1_" class="st17" d="M452.2,62l-0.6,3.9v10.3l1.6,5l1.9,3.3l0.5,9.9l1.8,13.4l1.8,7.3l0.4,6.4v5.3l-1.6,1.8l-1.8,1.3
				v1.5l0.9,1.7l4.1,3.5l0.7,3.2v35.9l60.3-0.6l21.2-0.7l-0.5-6l-1.8-2.1l-7.2-4.6l-3.6-5.3l-3.4-0.9l-2-2.8h-3.2l-3.5-3.8l-0.5-7
				l0.1-3.9l1.5-3l-0.7-2.7l-2.8-3.1l2.2-6.1l5.4-4l1.2-1.4l-0.2-8l0.2-3l2.6-3l3.8-2.9l1.3-0.2l4.5-5l1.8-0.8l2.3-3.9l2.4-3.6
				l3.1-2.6l4.8-2l9.2-4.1l3.9-1.8l0.6-2.3l-4.4,0.4l-0.7,1.1h-0.6l-1.8-3.1l-8.9,0.3l-1,0.8h-1l-0.5-1.3l-0.8-1.8l-2.6,0.5
				l-3.2,3.2l-1.6,0.8h-3.1l-2.6-1v-2.1l-1.3-0.2l-0.5,0.5l-2.6-1.3l-0.5-2.9l-1.5,0.5l-0.5,1l-2.4-0.5l-5.3-2.4l-3.9-2.6h-2.9
				l-1.3-1l-2.3,0.6l-1.1,1.1l-0.3,1.3h-4.8v-2.1l-6.3-0.3l-0.3-1.5h-4.8l-1.6-1.6l-1.5-6.1l-0.8-5.5l-1.9-0.8l-2.3-0.5l-0.6,0.2
				l-0.3,8.2l-30.1,0L452.2,62z"/>
			<radialGradient id="MS_2_" cx="541.699" cy="258.3303" r="304.6177" gradientUnits="userSpaceOnUse">
				<stop  offset="0" style="stop-color:#019966"/>
				<stop  offset="1" style="stop-color:#0D2C6C"/>
			</radialGradient>
			<path id="MS_1_" class="st18" d="M591.9,467.7l2.6-4.2l1.8,0.8l6.8-1.9l2.1,0.3l1.5,0.8h5.2l0.4-1.6l-1.7-14.8l-2.8-19l1-45.1
				l-0.2-16.7l0.2-6.3l-4.8,0.3l-19.6,1.6l-13,0.4l-0.2,3.2l-2.8,1.3l-2.6,5.1l0.5,1.6l0.1,2.4l-2.9,1.1l-3.5,5.1l0.8,2.3l-3,2.5
				l-1,5.7l-0.6,1.9l1.6,2.5l-1.5,1.4l1.5,2.8l0.3,4.2l-1.2,2.5l-0.2,0.9l0.4,5l2,4.5L559,420l2.3,2l-0.7,3.1l-0.9,0.3l0.6,1.9
				l-8.6,15l-0.8,8.2l0.5,1.5l24.2-0.7l8.2-0.7l1.9-0.3l0.6,1.4l-1,7.1l3.3,3.3l2.2,6.4L591.9,467.7z"/>
			<radialGradient id="WI_2_" cx="541.699" cy="258.3303" r="304.6177" gradientUnits="userSpaceOnUse">
				<stop  offset="0" style="stop-color:#019966"/>
				<stop  offset="1" style="stop-color:#0D2C6C"/>
			</radialGradient>
			<path id="WI_1_" class="st19" d="M529,105.1l2.9,0.5l2.9-0.6l7.4-3.2l2.9-1.9l2.1-0.8l1.9,1.5l-1.1,1.1l-1.9,3.1l-0.6,1.9l1,0.6
				l1.8-1l1.1-0.2l2.7,0.8l0.6,1.1l1.1,0.2l0.6-1.1l4,5.3l8.2,1.2l8.2,2.2l2.6,1.1l12.3,2.6l1.6,2.3l3.6,1.2l1.7,10.2l1.6,1.4
				l1.5,0.9l-1.1,2.3l-1.8,1.6l-2.1,4.7l-1.3,2.4l0.2,1.8l1.5,0.3l1.1-1.9l1.5-0.8l0.8-2.3l1.9-1.8l2.7-4l4.2-6.3l0.8-0.5l0.3,1
				l-0.2,2.3l-2.9,6.8l-2.7,5.7l-0.5,3.2l-0.6,2.6l0.8,1.3l-0.2,2.7l-1.9,2.4l-0.5,1.8l0.6,3.6l0.6,3.4l-1.5,2.6l-0.8,2.9l-1,3.1
				l1.1,2.4l0.6,6.1l1.6,4.5l-0.2,3l-15.9,1.8l-17.5,1h-12.7l-0.7-1.5l-2.9-0.4l-2.6-1.3l-2.3-3.7l-0.3-3.6l2-2.9l-0.5-1.4l-2.1-2.2
				l-0.8-3.3l-0.6-6.8l-2.1-2.5l-7-4.5l-3.8-5.4l-3.4-1l-2.2-2.8h-3.2l-2.9-3.3l-0.5-6.5l0.1-3.8l1.5-3.1l-0.8-3.2l-2.5-2.8l1.8-5.4
				l5.2-3.8l1.6-1.9l-0.2-8.1l0.2-2.8l2.4-2.8L529,105.1z"/>
		</g>
	</g>
	<g>
		<g>
			<path class="st20" d="M357.2,81.1h1.5l4.8,6.2v-6.2h1.6v9h-1.3l-5-6.4v6.4h-1.6V81.1z"/>
			<path class="st20" d="M366.8,86.8L366.8,86.8c0-2,1.5-3.6,3.6-3.6c2.1,0,3.6,1.6,3.6,3.5v0c0,1.9-1.5,3.5-3.6,3.5
				C368.4,90.3,366.8,88.7,366.8,86.8z M372.5,86.8L372.5,86.8c0-1.2-0.9-2.2-2.1-2.2c-1.2,0-2,1-2,2.2v0c0,1.2,0.9,2.2,2.1,2.2
				C371.7,88.9,372.5,88,372.5,86.8z"/>
			<path class="st20" d="M375.6,83.4h1.6v1.5c0.4-1,1.2-1.7,2.4-1.7v1.6h-0.1c-1.4,0-2.3,0.9-2.3,2.7v2.6h-1.6V83.4z"/>
			<path class="st20" d="M381.3,88.3v-3.6h-0.9v-1.3h0.9v-1.9h1.6v1.9h1.8v1.3h-1.8V88c0,0.6,0.3,0.8,0.8,0.8c0.3,0,0.7-0.1,1-0.2
				v1.3c-0.4,0.2-0.8,0.3-1.4,0.3C382.1,90.3,381.3,89.8,381.3,88.3z"/>
			<path class="st20" d="M386.2,80.8h1.6v3.6c0.4-0.6,1.1-1.2,2.1-1.2c1.5,0,2.4,1,2.4,2.6v4.3h-1.6v-3.9c0-1.1-0.5-1.7-1.5-1.7
				c-0.9,0-1.5,0.6-1.5,1.7v3.8h-1.6V80.8z"/>
			<path class="st20" d="M398.2,81.1h3.4c2.8,0,4.8,1.9,4.8,4.5v0c0,2.5-2,4.5-4.8,4.5h-3.4V81.1z M399.8,82.6v6.1h1.8
				c1.9,0,3.1-1.3,3.1-3v0c0-1.8-1.2-3.1-3.1-3.1H399.8z"/>
			<path class="st20" d="M407.7,88.2L407.7,88.2c0-1.5,1.1-2.2,2.8-2.2c0.8,0,1.3,0.1,1.8,0.3v-0.2c0-1-0.6-1.5-1.7-1.5
				c-0.8,0-1.3,0.2-1.9,0.4l-0.4-1.2c0.7-0.3,1.5-0.6,2.6-0.6c1,0,1.8,0.3,2.2,0.8c0.5,0.5,0.7,1.2,0.7,2.1v4h-1.5v-0.8
				c-0.5,0.6-1.2,1-2.2,1C408.8,90.3,407.7,89.5,407.7,88.2z M412.3,87.7v-0.5c-0.4-0.2-0.9-0.3-1.5-0.3c-1,0-1.6,0.4-1.6,1.1v0
				c0,0.7,0.6,1,1.3,1C411.5,89.1,412.3,88.6,412.3,87.7z"/>
			<path class="st20" d="M415.6,80.8h1.6v5.6l2.8-3h1.9l-2.7,2.8l2.8,4h-1.8l-2-2.9l-1,1v1.9h-1.6V80.8z"/>
			<path class="st20" d="M422.4,86.8L422.4,86.8c0-2,1.5-3.6,3.6-3.6c2.1,0,3.6,1.6,3.6,3.5v0c0,1.9-1.5,3.5-3.6,3.5
				C424,90.3,422.4,88.7,422.4,86.8z M428.1,86.8L428.1,86.8c0-1.2-0.9-2.2-2.1-2.2c-1.2,0-2,1-2,2.2v0c0,1.2,0.9,2.2,2.1,2.2
				C427.3,88.9,428.1,88,428.1,86.8z"/>
			<path class="st20" d="M431.6,88.3v-3.6h-0.9v-1.3h0.9v-1.9h1.6v1.9h1.8v1.3h-1.8V88c0,0.6,0.3,0.8,0.8,0.8c0.3,0,0.7-0.1,1-0.2
				v1.3c-0.4,0.2-0.8,0.3-1.4,0.3C432.4,90.3,431.6,89.8,431.6,88.3z"/>
			<path class="st20" d="M436.1,88.2L436.1,88.2c0-1.5,1.1-2.2,2.8-2.2c0.8,0,1.3,0.1,1.8,0.3v-0.2c0-1-0.6-1.5-1.7-1.5
				c-0.8,0-1.3,0.2-1.9,0.4l-0.4-1.2c0.7-0.3,1.5-0.6,2.6-0.6c1,0,1.8,0.3,2.2,0.8c0.5,0.5,0.7,1.2,0.7,2.1v4h-1.5v-0.8
				c-0.5,0.6-1.2,1-2.2,1C437.2,90.3,436.1,89.5,436.1,88.2z M440.7,87.7v-0.5c-0.4-0.2-0.9-0.3-1.5-0.3c-1,0-1.6,0.4-1.6,1.1v0
				c0,0.7,0.6,1,1.3,1C439.9,89.1,440.7,88.6,440.7,87.7z"/>
		</g>
		<g>
			<path class="st20" d="M464.6,82.6h1.7l2.7,4.3l2.7-4.3h1.7v9h-1.6v-6.4l-2.8,4.2H469l-2.8-4.2v6.4h-1.6V82.6z"/>
			<path class="st20" d="M475.6,82.3h1.7v1.5h-1.7V82.3z M475.7,84.9h1.6v6.8h-1.6V84.9z"/>
			<path class="st20" d="M479.3,84.9h1.6v1c0.4-0.6,1.1-1.2,2.1-1.2c1.5,0,2.4,1,2.4,2.6v4.3h-1.6v-3.9c0-1.1-0.5-1.7-1.5-1.7
				c-0.9,0-1.5,0.6-1.5,1.7v3.8h-1.6V84.9z"/>
			<path class="st20" d="M487.2,84.9h1.6v1c0.4-0.6,1.1-1.2,2.1-1.2c1.5,0,2.4,1,2.4,2.6v4.3h-1.6v-3.9c0-1.1-0.5-1.7-1.5-1.7
				c-0.9,0-1.5,0.6-1.5,1.7v3.8h-1.6V84.9z"/>
			<path class="st20" d="M494.8,88.3L494.8,88.3c0-2,1.4-3.6,3.3-3.6c2.2,0,3.2,1.7,3.2,3.6c0,0.1,0,0.3,0,0.4h-5
				c0.2,1.1,1,1.7,2,1.7c0.8,0,1.3-0.3,1.8-0.8l0.9,0.8c-0.6,0.8-1.5,1.3-2.8,1.3C496.3,91.8,494.8,90.4,494.8,88.3z M499.9,87.8
				c-0.1-1-0.7-1.8-1.7-1.8c-1,0-1.6,0.7-1.8,1.8H499.9z"/>
			<path class="st20" d="M502.4,90.7l0.7-1.1c0.7,0.6,1.5,0.8,2.2,0.8c0.7,0,1.1-0.3,1.1-0.7v0c0-0.5-0.7-0.7-1.5-1
				c-1-0.3-2.1-0.7-2.1-2v0c0-1.3,1.1-2.1,2.4-2.1c0.8,0,1.8,0.3,2.5,0.8l-0.6,1.1c-0.7-0.4-1.3-0.6-1.9-0.6c-0.6,0-1,0.3-1,0.7v0
				c0,0.5,0.7,0.7,1.5,1c1,0.3,2.1,0.8,2.1,2v0c0,1.4-1.1,2.1-2.5,2.1C504.3,91.8,503.3,91.4,502.4,90.7z"/>
			<path class="st20" d="M509,88.3L509,88.3c0-2,1.5-3.6,3.6-3.6s3.6,1.6,3.6,3.5v0c0,1.9-1.5,3.5-3.6,3.5
				C510.6,91.8,509,90.2,509,88.3z M514.7,88.3L514.7,88.3c0-1.2-0.9-2.2-2.1-2.2c-1.2,0-2,1-2,2.2v0c0,1.2,0.9,2.2,2.1,2.2
				C513.9,90.4,514.7,89.5,514.7,88.3z"/>
			<path class="st20" d="M518.2,89.8v-3.6h-0.9v-1.3h0.9V83h1.6v1.9h1.8v1.3h-1.8v3.3c0,0.6,0.3,0.8,0.8,0.8c0.3,0,0.7-0.1,1-0.2
				v1.3c-0.4,0.2-0.8,0.3-1.4,0.3C519,91.8,518.2,91.3,518.2,89.8z"/>
			<path class="st20" d="M522.7,89.7L522.7,89.7c0-1.5,1.1-2.2,2.8-2.2c0.8,0,1.3,0.1,1.8,0.3v-0.2c0-1-0.6-1.5-1.7-1.5
				c-0.8,0-1.3,0.2-1.9,0.4l-0.4-1.2c0.7-0.3,1.5-0.6,2.6-0.6c1,0,1.8,0.3,2.2,0.8c0.5,0.5,0.7,1.2,0.7,2.1v4h-1.5v-0.8
				c-0.5,0.6-1.2,1-2.2,1C523.8,91.8,522.7,91,522.7,89.7z M527.3,89.2v-0.5c-0.4-0.2-0.9-0.3-1.5-0.3c-1,0-1.6,0.4-1.6,1.1v0
				c0,0.7,0.6,1,1.3,1C526.5,90.6,527.3,90.1,527.3,89.2z"/>
		</g>
		<g>
			<path class="st20" d="M526.1,138.6h1.7l2.1,6.7l2.2-6.7h1.3l2.2,6.7l2.1-6.7h1.7l-3.1,9.1H535l-2.2-6.5l-2.2,6.5h-1.4
				L526.1,138.6z"/>
			<path class="st20" d="M540.8,138.3h1.7v1.5h-1.7V138.3z M540.8,140.9h1.6v6.8h-1.6V140.9z"/>
			<path class="st20" d="M543.9,146.7l0.7-1.1c0.7,0.6,1.5,0.8,2.2,0.8c0.7,0,1.1-0.3,1.1-0.7v0c0-0.5-0.7-0.7-1.5-1
				c-1-0.3-2.1-0.7-2.1-2v0c0-1.3,1.1-2.1,2.4-2.1c0.8,0,1.8,0.3,2.5,0.8l-0.6,1.1c-0.7-0.4-1.3-0.6-1.9-0.6c-0.6,0-1,0.3-1,0.7v0
				c0,0.5,0.7,0.7,1.5,1c1,0.3,2.1,0.8,2.1,2v0c0,1.4-1.1,2.1-2.5,2.1C545.8,147.8,544.7,147.4,543.9,146.7z"/>
			<path class="st20" d="M550.5,144.3L550.5,144.3c0-2,1.5-3.6,3.5-3.6c1.3,0,2.1,0.5,2.7,1.2l-1,1c-0.5-0.5-1-0.8-1.7-0.8
				c-1.1,0-2,1-2,2.2v0c0,1.2,0.8,2.2,2,2.2c0.7,0,1.3-0.3,1.8-0.8l0.9,0.9c-0.7,0.7-1.5,1.3-2.8,1.3
				C552,147.8,550.5,146.2,550.5,144.3z"/>
			<path class="st20" d="M557.6,144.3L557.6,144.3c0-2,1.5-3.6,3.6-3.6c2.1,0,3.6,1.6,3.6,3.5v0c0,1.9-1.5,3.5-3.6,3.5
				C559.2,147.8,557.6,146.2,557.6,144.3z M563.3,144.3L563.3,144.3c0-1.2-0.9-2.2-2.1-2.2c-1.2,0-2,1-2,2.2v0
				c0,1.2,0.9,2.2,2.1,2.2C562.5,146.4,563.3,145.5,563.3,144.3z"/>
			<path class="st20" d="M566.5,140.9h1.6v1c0.4-0.6,1.1-1.2,2.1-1.2c1.5,0,2.4,1,2.4,2.6v4.3H571v-3.9c0-1.1-0.5-1.7-1.5-1.7
				c-0.9,0-1.5,0.6-1.5,1.7v3.8h-1.6V140.9z"/>
			<path class="st20" d="M573.9,146.7l0.7-1.1c0.7,0.6,1.5,0.8,2.2,0.8c0.7,0,1.1-0.3,1.1-0.7v0c0-0.5-0.7-0.7-1.5-1
				c-1-0.3-2.1-0.7-2.1-2v0c0-1.3,1.1-2.1,2.4-2.1c0.8,0,1.8,0.3,2.5,0.8l-0.6,1.1c-0.7-0.4-1.3-0.6-1.9-0.6c-0.6,0-1,0.3-1,0.7v0
				c0,0.5,0.7,0.7,1.5,1c1,0.3,2.1,0.8,2.1,2v0c0,1.4-1.1,2.1-2.5,2.1C575.8,147.8,574.7,147.4,573.9,146.7z"/>
			<path class="st20" d="M580.9,138.3h1.7v1.5h-1.7V138.3z M581,140.9h1.6v6.8H581V140.9z"/>
			<path class="st20" d="M584.5,140.9h1.6v1c0.4-0.6,1.1-1.2,2.1-1.2c1.5,0,2.4,1,2.4,2.6v4.3h-1.6v-3.9c0-1.1-0.5-1.7-1.5-1.7
				c-0.9,0-1.5,0.6-1.5,1.7v3.8h-1.6V140.9z"/>
		</g>
		<g>
			<path class="st20" d="M561,242.6h1.6v9H561V242.6z"/>
			<path class="st20" d="M564.9,242.3h1.6v9.4h-1.6V242.3z"/>
			<path class="st20" d="M568.6,242.3h1.6v9.4h-1.6V242.3z"/>
			<path class="st20" d="M572.2,242.3h1.7v1.5h-1.7V242.3z M572.3,244.9h1.6v6.8h-1.6V244.9z"/>
			<path class="st20" d="M575.8,244.9h1.6v1c0.4-0.6,1.1-1.2,2.1-1.2c1.5,0,2.4,1,2.4,2.6v4.3h-1.6v-3.9c0-1.1-0.5-1.7-1.5-1.7
				c-0.9,0-1.5,0.6-1.5,1.7v3.8h-1.6V244.9z"/>
			<path class="st20" d="M583.4,248.3L583.4,248.3c0-2,1.5-3.6,3.6-3.6s3.6,1.6,3.6,3.5v0c0,1.9-1.5,3.5-3.6,3.5
				C585,251.8,583.4,250.2,583.4,248.3z M589.1,248.3L589.1,248.3c0-1.2-0.9-2.2-2.1-2.2c-1.2,0-2,1-2,2.2v0c0,1.2,0.9,2.2,2.1,2.2
				C588.3,250.4,589.1,249.5,589.1,248.3z"/>
			<path class="st20" d="M592.3,242.3h1.7v1.5h-1.7V242.3z M592.3,244.9h1.6v6.8h-1.6V244.9z"/>
			<path class="st20" d="M595.4,250.7l0.7-1.1c0.7,0.6,1.5,0.8,2.2,0.8c0.7,0,1.1-0.3,1.1-0.7v0c0-0.5-0.7-0.7-1.5-1
				c-1-0.3-2.1-0.7-2.1-2v0c0-1.3,1.1-2.1,2.4-2.1c0.8,0,1.8,0.3,2.5,0.8l-0.6,1.1c-0.7-0.4-1.3-0.6-1.9-0.6c-0.6,0-1,0.3-1,0.7v0
				c0,0.5,0.7,0.7,1.5,1c1,0.3,2.1,0.8,2.1,2v0c0,1.4-1.1,2.1-2.5,2.1C597.3,251.8,596.2,251.4,595.4,250.7z"/>
		</g>
		<g>
			<path class="st20" d="M675.8,231.2L675.8,231.2c0-2.6,2-4.7,4.7-4.7c2.8,0,4.7,2.1,4.7,4.6v0c0,2.5-2,4.7-4.7,4.7
				C677.8,235.8,675.8,233.7,675.8,231.2z M683.6,231.2L683.6,231.2c0-1.8-1.3-3.2-3.1-3.2c-1.8,0-3,1.4-3,3.2v0
				c0,1.7,1.3,3.2,3.1,3.2S683.6,232.9,683.6,231.2z"/>
			<path class="st20" d="M687,226.3h1.6v3.6c0.4-0.6,1.1-1.2,2.1-1.2c1.5,0,2.4,1,2.4,2.6v4.3h-1.6v-3.9c0-1.1-0.5-1.7-1.5-1.7
				c-0.9,0-1.5,0.6-1.5,1.7v3.8H687V226.3z"/>
			<path class="st20" d="M695,226.3h1.7v1.5H695V226.3z M695,228.9h1.6v6.8H695V228.9z"/>
			<path class="st20" d="M698.2,232.3L698.2,232.3c0-2,1.5-3.6,3.6-3.6c2.1,0,3.6,1.6,3.6,3.5v0c0,1.9-1.5,3.5-3.6,3.5
				C699.8,235.8,698.2,234.2,698.2,232.3z M703.9,232.3L703.9,232.3c0-1.2-0.9-2.2-2.1-2.2c-1.2,0-2,1-2,2.2v0
				c0,1.2,0.9,2.2,2.1,2.2C703.1,234.4,703.9,233.5,703.9,232.3z"/>
		</g>
		<g>
			<path class="st20" d="M625.8,166.6h1.7l2.7,4.3l2.7-4.3h1.7v9H633v-6.4l-2.8,4.2h-0.1l-2.8-4.2v6.4h-1.6V166.6z"/>
			<path class="st20" d="M636.8,166.3h1.7v1.5h-1.7V166.3z M636.8,168.9h1.6v6.8h-1.6V168.9z"/>
			<path class="st20" d="M640,172.3L640,172.3c0-2,1.5-3.6,3.5-3.6c1.3,0,2.1,0.5,2.7,1.2l-1,1c-0.5-0.5-1-0.8-1.7-0.8
				c-1.1,0-2,1-2,2.2v0c0,1.2,0.8,2.2,2,2.2c0.7,0,1.3-0.3,1.8-0.8l0.9,0.9c-0.7,0.7-1.5,1.3-2.8,1.3
				C641.5,175.8,640,174.2,640,172.3z"/>
			<path class="st20" d="M647.8,166.3h1.6v3.6c0.4-0.6,1.1-1.2,2.1-1.2c1.5,0,2.4,1,2.4,2.6v4.3h-1.6v-3.9c0-1.1-0.5-1.7-1.5-1.7
				c-0.9,0-1.5,0.6-1.5,1.7v3.8h-1.6V166.3z"/>
			<path class="st20" d="M655.7,166.3h1.7v1.5h-1.7V166.3z M655.8,168.9h1.6v6.8h-1.6V168.9z"/>
			<path class="st20" d="M659.4,176.9l0.6-1.2c0.7,0.4,1.5,0.7,2.4,0.7c1.4,0,2.1-0.7,2.1-2.1v-0.5c-0.6,0.7-1.3,1.2-2.4,1.2
				c-1.6,0-3.1-1.2-3.1-3.2v0c0-2,1.5-3.2,3.1-3.2c1.1,0,1.9,0.5,2.4,1.2v-1h1.6v5.4c0,1.1-0.3,2-0.9,2.6c-0.6,0.6-1.6,0.9-2.8,0.9
				C661.3,177.7,660.3,177.4,659.4,176.9z M664.5,171.9L664.5,171.9c0-1.1-0.9-1.9-2-1.9c-1.1,0-1.9,0.7-1.9,1.9v0
				c0,1.1,0.9,1.9,1.9,1.9C663.6,173.8,664.5,173,664.5,171.9z"/>
			<path class="st20" d="M667.6,173.7L667.6,173.7c0-1.5,1.1-2.2,2.8-2.2c0.8,0,1.3,0.1,1.8,0.3v-0.2c0-1-0.6-1.5-1.7-1.5
				c-0.8,0-1.3,0.2-1.9,0.4l-0.4-1.2c0.7-0.3,1.5-0.6,2.6-0.6c1,0,1.8,0.3,2.2,0.8c0.5,0.5,0.7,1.2,0.7,2.1v4h-1.5v-0.8
				c-0.5,0.6-1.2,1-2.2,1C668.7,175.8,667.6,175,667.6,173.7z M672.2,173.2v-0.5c-0.4-0.2-0.9-0.3-1.5-0.3c-1,0-1.6,0.4-1.6,1.1v0
				c0,0.7,0.6,1,1.3,1C671.4,174.6,672.2,174.1,672.2,173.2z"/>
			<path class="st20" d="M675.6,168.9h1.6v1c0.4-0.6,1.1-1.2,2.1-1.2c1.5,0,2.4,1,2.4,2.6v4.3h-1.6v-3.9c0-1.1-0.5-1.7-1.5-1.7
				c-0.9,0-1.5,0.6-1.5,1.7v3.8h-1.6V168.9z"/>
		</g>
		<g>
			<path class="st20" d="M606.1,232.6h1.6v9h-1.6V232.6z"/>
			<path class="st20" d="M609.9,234.9h1.6v1c0.4-0.6,1.1-1.2,2.1-1.2c1.5,0,2.4,1,2.4,2.6v4.3h-1.6v-3.9c0-1.1-0.5-1.7-1.5-1.7
				c-0.9,0-1.5,0.6-1.5,1.7v3.8h-1.6V234.9z"/>
			<path class="st20" d="M617.6,238.3L617.6,238.3c0-2.3,1.5-3.5,3.1-3.5c1.1,0,1.8,0.6,2.3,1.2v-3.6h1.6v9.4H623v-1.1
				c-0.5,0.7-1.2,1.3-2.3,1.3C619.1,241.8,617.6,240.5,617.6,238.3z M623,238.3L623,238.3c0-1.3-0.9-2.2-2-2.2c-1.1,0-2,0.8-2,2.2v0
				c0,1.3,0.9,2.2,2,2.2C622.1,240.4,623,239.6,623,238.3z"/>
			<path class="st20" d="M626.5,232.3h1.7v1.5h-1.7V232.3z M626.6,234.9h1.6v6.8h-1.6V234.9z"/>
			<path class="st20" d="M629.7,239.7L629.7,239.7c0-1.5,1.1-2.2,2.8-2.2c0.8,0,1.3,0.1,1.8,0.3v-0.2c0-1-0.6-1.5-1.7-1.5
				c-0.8,0-1.3,0.2-1.9,0.4l-0.4-1.2c0.7-0.3,1.5-0.6,2.6-0.6c1,0,1.8,0.3,2.2,0.8c0.5,0.5,0.7,1.2,0.7,2.1v4h-1.5v-0.8
				c-0.5,0.6-1.2,1-2.2,1C630.9,241.8,629.7,241,629.7,239.7z M634.4,239.2v-0.5c-0.4-0.2-0.9-0.3-1.5-0.3c-1,0-1.6,0.4-1.6,1.1v0
				c0,0.7,0.6,1,1.3,1C633.6,240.6,634.4,240.1,634.4,239.2z"/>
			<path class="st20" d="M637.7,234.9h1.6v1c0.4-0.6,1.1-1.2,2.1-1.2c1.5,0,2.4,1,2.4,2.6v4.3h-1.6v-3.9c0-1.1-0.5-1.7-1.5-1.7
				c-0.9,0-1.5,0.6-1.5,1.7v3.8h-1.6V234.9z"/>
			<path class="st20" d="M645.3,239.7L645.3,239.7c0-1.5,1.1-2.2,2.8-2.2c0.8,0,1.3,0.1,1.8,0.3v-0.2c0-1-0.6-1.5-1.7-1.5
				c-0.8,0-1.3,0.2-1.9,0.4l-0.4-1.2c0.7-0.3,1.5-0.6,2.6-0.6c1,0,1.8,0.3,2.2,0.8c0.5,0.5,0.7,1.2,0.7,2.1v4h-1.5v-0.8
				c-0.5,0.6-1.2,1-2.2,1C646.4,241.8,645.3,241,645.3,239.7z M649.9,239.2v-0.5c-0.4-0.2-0.9-0.3-1.5-0.3c-1,0-1.6,0.4-1.6,1.1v0
				c0,0.7,0.6,1,1.3,1C649.1,240.6,649.9,240.1,649.9,239.2z"/>
		</g>
		<g>
			<path class="st20" d="M628.6,297.6h1.6v4.5l4.3-4.5h2l-3.8,3.9l3.9,5.1h-1.9l-3.1-4l-1.4,1.4v2.6h-1.6V297.6z"/>
			<path class="st20" d="M637,303.3L637,303.3c0-2,1.4-3.6,3.3-3.6c2.2,0,3.3,1.7,3.3,3.6c0,0.1,0,0.3,0,0.4h-5c0.2,1.1,1,1.7,2,1.7
				c0.8,0,1.3-0.3,1.8-0.8l0.9,0.8c-0.6,0.8-1.5,1.3-2.8,1.3C638.5,306.8,637,305.4,637,303.3z M642,302.8c-0.1-1-0.7-1.8-1.7-1.8
				c-1,0-1.6,0.7-1.8,1.8H642z"/>
			<path class="st20" d="M645.2,299.9h1.6v1c0.4-0.6,1.1-1.2,2.1-1.2c1.5,0,2.4,1,2.4,2.6v4.3h-1.6v-3.9c0-1.1-0.5-1.7-1.5-1.7
				c-0.9,0-1.5,0.6-1.5,1.7v3.8h-1.6V299.9z"/>
			<path class="st20" d="M653.4,304.8v-3.6h-0.9v-1.3h0.9V298h1.6v1.9h1.8v1.3H655v3.3c0,0.6,0.3,0.8,0.8,0.8c0.3,0,0.7-0.1,1-0.2
				v1.3c-0.4,0.2-0.8,0.3-1.4,0.3C654.3,306.8,653.4,306.3,653.4,304.8z"/>
			<path class="st20" d="M658.3,304.2v-4.3h1.6v3.9c0,1.1,0.5,1.6,1.5,1.6c0.9,0,1.5-0.6,1.5-1.7v-3.8h1.6v6.8h-1.6v-1.1
				c-0.4,0.6-1.1,1.2-2.1,1.2C659.2,306.8,658.3,305.7,658.3,304.2z"/>
			<path class="st20" d="M666,303.3L666,303.3c0-2,1.5-3.6,3.5-3.6c1.3,0,2.1,0.5,2.7,1.2l-1,1c-0.5-0.5-1-0.8-1.7-0.8
				c-1.1,0-2,1-2,2.2v0c0,1.2,0.8,2.2,2,2.2c0.7,0,1.3-0.3,1.8-0.8l0.9,0.9c-0.7,0.7-1.5,1.3-2.8,1.3
				C667.5,306.8,666,305.2,666,303.3z"/>
			<path class="st20" d="M673.7,297.3h1.6v5.6l2.8-3h1.9l-2.7,2.8l2.8,4h-1.8l-2-2.9l-1,1v1.9h-1.6V297.3z"/>
			<path class="st20" d="M685.7,299.9h1.6l-2.7,7c-0.5,1.4-1.1,1.9-2.2,1.9c-0.6,0-1.1-0.2-1.6-0.4l0.5-1.2c0.3,0.2,0.6,0.3,0.9,0.3
				c0.4,0,0.7-0.2,1-0.8l-2.8-6.8h1.7l1.9,5L685.7,299.9z"/>
		</g>
		<g>
			<path class="st20" d="M606.6,337.1h-2.9v-1.5h7.3v1.5h-2.9v7.5h-1.6V337.1z"/>
			<path class="st20" d="M610.7,341.3L610.7,341.3c0-2,1.4-3.6,3.3-3.6c2.2,0,3.3,1.7,3.3,3.6c0,0.1,0,0.3,0,0.4h-5
				c0.2,1.1,1,1.7,2,1.7c0.8,0,1.3-0.3,1.8-0.8l0.9,0.8c-0.6,0.8-1.5,1.3-2.8,1.3C612.3,344.8,610.7,343.4,610.7,341.3z
				 M615.8,340.8c-0.1-1-0.7-1.8-1.7-1.8c-1,0-1.6,0.7-1.8,1.8H615.8z"/>
			<path class="st20" d="M618.9,337.9h1.6v1c0.4-0.6,1.1-1.2,2.1-1.2c1.5,0,2.4,1,2.4,2.6v4.3h-1.6v-3.9c0-1.1-0.5-1.7-1.5-1.7
				c-0.9,0-1.5,0.6-1.5,1.7v3.8h-1.6V337.9z"/>
			<path class="st20" d="M626.9,337.9h1.6v1c0.4-0.6,1.1-1.2,2.1-1.2c1.5,0,2.4,1,2.4,2.6v4.3h-1.6v-3.9c0-1.1-0.5-1.7-1.5-1.7
				c-0.9,0-1.5,0.6-1.5,1.7v3.8h-1.6V337.9z"/>
			<path class="st20" d="M634.4,341.3L634.4,341.3c0-2,1.4-3.6,3.3-3.6c2.2,0,3.3,1.7,3.3,3.6c0,0.1,0,0.3,0,0.4h-5
				c0.2,1.1,1,1.7,2,1.7c0.8,0,1.3-0.3,1.8-0.8l0.9,0.8c-0.6,0.8-1.5,1.3-2.8,1.3C636,344.8,634.4,343.4,634.4,341.3z M639.5,340.8
				c-0.1-1-0.7-1.8-1.7-1.8c-1,0-1.6,0.7-1.8,1.8H639.5z"/>
			<path class="st20" d="M642,343.7l0.7-1.1c0.7,0.6,1.5,0.8,2.2,0.8c0.7,0,1.1-0.3,1.1-0.7v0c0-0.5-0.7-0.7-1.5-1
				c-1-0.3-2.1-0.7-2.1-2v0c0-1.3,1.1-2.1,2.4-2.1c0.8,0,1.8,0.3,2.5,0.8l-0.6,1.1c-0.7-0.4-1.3-0.6-1.9-0.6c-0.6,0-1,0.3-1,0.7v0
				c0,0.5,0.7,0.7,1.5,1c1,0.3,2.1,0.8,2.1,2v0c0,1.4-1.1,2.1-2.5,2.1C643.9,344.8,642.9,344.4,642,343.7z"/>
			<path class="st20" d="M648.3,343.7l0.7-1.1c0.7,0.6,1.5,0.8,2.2,0.8c0.7,0,1.1-0.3,1.1-0.7v0c0-0.5-0.7-0.7-1.5-1
				c-1-0.3-2.1-0.7-2.1-2v0c0-1.3,1.1-2.1,2.4-2.1c0.8,0,1.8,0.3,2.5,0.8l-0.6,1.1c-0.7-0.4-1.3-0.6-1.9-0.6c-0.6,0-1,0.3-1,0.7v0
				c0,0.5,0.7,0.7,1.5,1c1,0.3,2.1,0.8,2.1,2v0c0,1.4-1.1,2.1-2.5,2.1C650.3,344.8,649.2,344.4,648.3,343.7z"/>
			<path class="st20" d="M655,341.3L655,341.3c0-2,1.4-3.6,3.3-3.6c2.2,0,3.3,1.7,3.3,3.6c0,0.1,0,0.3,0,0.4h-5c0.2,1.1,1,1.7,2,1.7
				c0.8,0,1.3-0.3,1.8-0.8l0.9,0.8c-0.6,0.8-1.5,1.3-2.8,1.3C656.5,344.8,655,343.4,655,341.3z M660,340.8c-0.1-1-0.7-1.8-1.7-1.8
				c-1,0-1.6,0.7-1.8,1.8H660z"/>
			<path class="st20" d="M662.7,341.3L662.7,341.3c0-2,1.4-3.6,3.3-3.6c2.2,0,3.2,1.7,3.2,3.6c0,0.1,0,0.3,0,0.4h-5
				c0.2,1.1,1,1.7,2,1.7c0.8,0,1.3-0.3,1.8-0.8l0.9,0.8c-0.6,0.8-1.5,1.3-2.8,1.3C664.2,344.8,662.7,343.4,662.7,341.3z
				 M667.7,340.8c-0.1-1-0.7-1.8-1.7-1.8c-1,0-1.6,0.7-1.8,1.8H667.7z"/>
		</g>
		<g>
			<path class="st20" d="M551.4,398.6h1.7l2.7,4.3l2.7-4.3h1.7v9h-1.6v-6.5l-2.8,4.2h-0.1l-2.8-4.2v6.4h-1.6V398.6z"/>
			<path class="st20" d="M562.4,398.3h1.7v1.5h-1.7V398.3z M562.5,400.9h1.6v6.8h-1.6V400.9z"/>
			<path class="st20" d="M565.5,406.7l0.7-1.1c0.7,0.6,1.5,0.8,2.2,0.8c0.7,0,1.1-0.3,1.1-0.7v0c0-0.5-0.7-0.7-1.5-1
				c-1-0.3-2.1-0.7-2.1-2v0c0-1.3,1.1-2.1,2.4-2.1c0.8,0,1.8,0.3,2.5,0.8l-0.6,1.1c-0.7-0.4-1.3-0.6-1.9-0.6c-0.6,0-1,0.3-1,0.7v0
				c0,0.5,0.7,0.7,1.5,1c1,0.3,2.1,0.8,2.1,2v0c0,1.4-1.1,2.1-2.5,2.1C567.4,407.8,566.4,407.4,565.5,406.7z"/>
			<path class="st20" d="M571.8,406.7l0.7-1.1c0.7,0.6,1.5,0.8,2.2,0.8c0.7,0,1.1-0.3,1.1-0.7v0c0-0.5-0.7-0.7-1.5-1
				c-1-0.3-2.1-0.7-2.1-2v0c0-1.3,1.1-2.1,2.4-2.1c0.8,0,1.8,0.3,2.5,0.8l-0.6,1.1c-0.7-0.4-1.3-0.6-1.9-0.6c-0.6,0-1,0.3-1,0.7v0
				c0,0.5,0.7,0.7,1.5,1c1,0.3,2.1,0.8,2.1,2v0c0,1.4-1.1,2.1-2.5,2.1C573.8,407.8,572.7,407.4,571.8,406.7z"/>
			<path class="st20" d="M578.9,398.3h1.7v1.5h-1.7V398.3z M578.9,400.9h1.6v6.8h-1.6V400.9z"/>
			<path class="st20" d="M582,406.7l0.7-1.1c0.7,0.6,1.5,0.8,2.2,0.8c0.7,0,1.1-0.3,1.1-0.7v0c0-0.5-0.7-0.7-1.5-1
				c-1-0.3-2.1-0.7-2.1-2v0c0-1.3,1.1-2.1,2.4-2.1c0.8,0,1.8,0.3,2.5,0.8l-0.6,1.1c-0.7-0.4-1.3-0.6-1.9-0.6c-0.6,0-1,0.3-1,0.7v0
				c0,0.5,0.7,0.7,1.5,1c1,0.3,2.1,0.8,2.1,2v0c0,1.4-1.1,2.1-2.5,2.1C583.9,407.8,582.8,407.4,582,406.7z"/>
			<path class="st20" d="M588.3,406.7l0.7-1.1c0.7,0.6,1.5,0.8,2.2,0.8c0.7,0,1.1-0.3,1.1-0.7v0c0-0.5-0.7-0.7-1.5-1
				c-1-0.3-2.1-0.7-2.1-2v0c0-1.3,1.1-2.1,2.4-2.1c0.8,0,1.8,0.3,2.5,0.8l-0.6,1.1c-0.7-0.4-1.3-0.6-1.9-0.6c-0.6,0-1,0.3-1,0.7v0
				c0,0.5,0.7,0.7,1.5,1c1,0.3,2.1,0.8,2.1,2v0c0,1.4-1.1,2.1-2.5,2.1C590.2,407.8,589.1,407.4,588.3,406.7z"/>
			<path class="st20" d="M595.3,398.3h1.7v1.5h-1.7V398.3z M595.3,400.9h1.6v6.8h-1.6V400.9z"/>
			<path class="st20" d="M598.9,400.9h1.6v1.1c0.5-0.7,1.2-1.3,2.3-1.3c1.6,0,3.1,1.3,3.1,3.5v0c0,2.2-1.5,3.5-3.1,3.5
				c-1.1,0-1.8-0.6-2.3-1.2v3.1h-1.6V400.9z M604.4,404.3L604.4,404.3c0-1.3-0.9-2.2-1.9-2.2s-2,0.9-2,2.2v0c0,1.3,0.9,2.2,2,2.2
				C603.5,406.4,604.4,405.6,604.4,404.3z"/>
			<path class="st20" d="M607.6,400.9h1.6v1.1c0.5-0.7,1.2-1.3,2.3-1.3c1.6,0,3.1,1.3,3.1,3.5v0c0,2.2-1.5,3.5-3.1,3.5
				c-1.1,0-1.8-0.6-2.3-1.2v3.1h-1.6V400.9z M613,404.3L613,404.3c0-1.3-0.9-2.2-1.9-2.2c-1.1,0-2,0.9-2,2.2v0c0,1.3,0.9,2.2,2,2.2
				C612.1,406.4,613,405.6,613,404.3z"/>
			<path class="st20" d="M616.2,398.3h1.7v1.5h-1.7V398.3z M616.3,400.9h1.6v6.8h-1.6V400.9z"/>
		</g>
		<g>
			<path class="st20" d="M613.3,422.6h1.5l4,9.1H617l-0.9-2.2h-4.3l-0.9,2.2h-1.6L613.3,422.6z M615.5,428.1l-1.6-3.6l-1.5,3.6
				H615.5z"/>
			<path class="st20" d="M620.2,422.3h1.6v9.4h-1.6V422.3z"/>
			<path class="st20" d="M623.3,429.7L623.3,429.7c0-1.5,1.1-2.2,2.8-2.2c0.8,0,1.3,0.1,1.8,0.3v-0.2c0-1-0.6-1.5-1.7-1.5
				c-0.8,0-1.3,0.2-1.9,0.4l-0.4-1.2c0.7-0.3,1.5-0.6,2.6-0.6c1,0,1.8,0.3,2.2,0.8c0.5,0.5,0.7,1.2,0.7,2.1v4h-1.5v-0.8
				c-0.5,0.6-1.2,1-2.2,1C624.4,431.8,623.3,431,623.3,429.7z M627.9,429.2v-0.5c-0.4-0.2-0.9-0.3-1.5-0.3c-1,0-1.6,0.4-1.6,1.1v0
				c0,0.7,0.6,1,1.3,1C627.2,430.6,627.9,430.1,627.9,429.2z"/>
			<path class="st20" d="M632.8,430.6v1.1h-1.6v-9.4h1.6v3.7c0.5-0.7,1.2-1.3,2.3-1.3c1.6,0,3.1,1.3,3.1,3.5v0
				c0,2.2-1.5,3.5-3.1,3.5C634,431.8,633.3,431.2,632.8,430.6z M636.7,428.3L636.7,428.3c0-1.3-0.9-2.2-1.9-2.2c-1.1,0-2,0.9-2,2.2
				v0c0,1.3,0.9,2.2,2,2.2C635.8,430.4,636.7,429.6,636.7,428.3z"/>
			<path class="st20" d="M639.5,429.7L639.5,429.7c0-1.5,1.1-2.2,2.8-2.2c0.8,0,1.3,0.1,1.8,0.3v-0.2c0-1-0.6-1.5-1.7-1.5
				c-0.8,0-1.3,0.2-1.9,0.4l-0.4-1.2c0.7-0.3,1.5-0.6,2.6-0.6c1,0,1.8,0.3,2.2,0.8c0.5,0.5,0.7,1.2,0.7,2.1v4h-1.5v-0.8
				c-0.5,0.6-1.2,1-2.2,1C640.6,431.8,639.5,431,639.5,429.7z M644.1,429.2v-0.5c-0.4-0.2-0.9-0.3-1.5-0.3c-1,0-1.6,0.4-1.6,1.1v0
				c0,0.7,0.6,1,1.3,1C643.3,430.6,644.1,430.1,644.1,429.2z"/>
			<path class="st20" d="M647.4,424.9h1.6v1c0.4-0.6,1-1.2,2.1-1.2c1,0,1.7,0.5,2,1.2c0.5-0.7,1.3-1.2,2.3-1.2
				c1.5,0,2.4,0.9,2.4,2.6v4.3h-1.6v-3.9c0-1.1-0.5-1.7-1.4-1.7c-0.8,0-1.5,0.6-1.5,1.7v3.8h-1.6v-3.9c0-1.1-0.5-1.6-1.4-1.6
				c-0.9,0-1.5,0.6-1.5,1.7v3.8h-1.6V424.9z"/>
			<path class="st20" d="M659.2,429.7L659.2,429.7c0-1.5,1.1-2.2,2.8-2.2c0.8,0,1.3,0.1,1.8,0.3v-0.2c0-1-0.6-1.5-1.7-1.5
				c-0.8,0-1.3,0.2-1.9,0.4l-0.4-1.2c0.7-0.3,1.5-0.6,2.6-0.6c1,0,1.8,0.3,2.2,0.8c0.5,0.5,0.7,1.2,0.7,2.1v4h-1.5v-0.8
				c-0.5,0.6-1.2,1-2.2,1C660.3,431.8,659.2,431,659.2,429.7z M663.9,429.2v-0.5c-0.4-0.2-0.9-0.3-1.5-0.3c-1,0-1.6,0.4-1.6,1.1v0
				c0,0.7,0.6,1,1.3,1C663.1,430.6,663.9,430.1,663.9,429.2z"/>
		</g>
		<g>
			<path class="st20" d="M497.1,201.1h1.6v9h-1.6V201.1z"/>
			<path class="st20" d="M500.5,206.8L500.5,206.8c0-2,1.5-3.6,3.6-3.6c2.1,0,3.6,1.6,3.6,3.5v0c0,1.9-1.5,3.5-3.6,3.5
				C502,210.3,500.5,208.7,500.5,206.8z M506.2,206.8L506.2,206.8c0-1.2-0.9-2.2-2.1-2.2c-1.2,0-2,1-2,2.2v0c0,1.2,0.9,2.2,2.1,2.2
				C505.4,208.9,506.2,207.9,506.2,206.8z"/>
			<path class="st20" d="M508.4,203.3h1.6l1.4,4.7l1.5-4.7h1.3l1.5,4.7l1.4-4.7h1.6l-2.2,6.8H515l-1.5-4.6l-1.5,4.6h-1.4
				L508.4,203.3z"/>
			<path class="st20" d="M519.3,208.2L519.3,208.2c0-1.5,1.1-2.2,2.8-2.2c0.8,0,1.3,0.1,1.8,0.3v-0.2c0-1-0.6-1.5-1.7-1.5
				c-0.8,0-1.3,0.2-1.9,0.4l-0.4-1.2c0.7-0.3,1.5-0.6,2.6-0.6c1,0,1.8,0.3,2.2,0.8c0.5,0.5,0.7,1.2,0.7,2.1v4h-1.5v-0.8
				c-0.5,0.6-1.2,1-2.2,1C520.5,210.3,519.3,209.5,519.3,208.2z M524,207.7v-0.5c-0.4-0.2-0.9-0.3-1.5-0.3c-1,0-1.6,0.4-1.6,1.1v0
				c0,0.7,0.6,1,1.3,1C523.2,209.1,524,208.6,524,207.7z"/>
		</g>
		<g>
			<path class="st20" d="M500.8,282.1h1.7l2.7,4.3l2.7-4.3h1.7v9H508v-6.4l-2.8,4.2h-0.1l-2.8-4.2v6.4h-1.6V282.1z"/>
			<path class="st20" d="M511.7,281.8h1.7v1.5h-1.7V281.8z M511.8,284.3h1.6v6.8h-1.6V284.3z"/>
			<path class="st20" d="M514.8,290.2l0.7-1.1c0.7,0.6,1.5,0.8,2.2,0.8c0.7,0,1.1-0.3,1.1-0.7v0c0-0.5-0.7-0.7-1.5-1
				c-1-0.3-2.1-0.7-2.1-2v0c0-1.3,1.1-2.1,2.4-2.1c0.8,0,1.8,0.3,2.5,0.8l-0.6,1.1c-0.7-0.4-1.3-0.6-1.9-0.6c-0.6,0-1,0.3-1,0.7v0
				c0,0.5,0.7,0.7,1.5,1c1,0.3,2.1,0.8,2.1,2v0c0,1.4-1.1,2.1-2.5,2.1C516.8,291.3,515.7,290.9,514.8,290.2z"/>
			<path class="st20" d="M521.2,290.2l0.7-1.1c0.7,0.6,1.5,0.8,2.2,0.8c0.7,0,1.1-0.3,1.1-0.7v0c0-0.5-0.7-0.7-1.5-1
				c-1-0.3-2.1-0.7-2.1-2v0c0-1.3,1.1-2.1,2.4-2.1c0.8,0,1.8,0.3,2.5,0.8l-0.6,1.1c-0.7-0.4-1.3-0.6-1.9-0.6c-0.6,0-1,0.3-1,0.7v0
				c0,0.5,0.7,0.7,1.5,1c1,0.3,2.1,0.8,2.1,2v0c0,1.4-1.1,2.1-2.5,2.1C523.1,291.3,522,290.9,521.2,290.2z"/>
			<path class="st20" d="M527.8,287.8L527.8,287.8c0-2,1.5-3.6,3.6-3.6s3.6,1.6,3.6,3.5v0c0,1.9-1.5,3.5-3.6,3.5
				C529.3,291.3,527.8,289.7,527.8,287.8z M533.5,287.8L533.5,287.8c0-1.2-0.9-2.2-2.1-2.2c-1.2,0-2,1-2,2.2v0
				c0,1.2,0.9,2.2,2.1,2.2C532.7,289.9,533.5,288.9,533.5,287.8z"/>
			<path class="st20" d="M536.5,288.7v-4.3h1.6v3.9c0,1.1,0.5,1.6,1.5,1.6c0.9,0,1.5-0.6,1.5-1.7v-3.8h1.6v6.8H541v-1.1
				c-0.4,0.6-1.1,1.2-2.1,1.2C537.4,291.3,536.5,290.2,536.5,288.7z"/>
			<path class="st20" d="M544.6,284.3h1.6v1.5c0.4-1,1.2-1.7,2.4-1.7v1.6h-0.1c-1.4,0-2.3,0.9-2.3,2.7v2.6h-1.6V284.3z"/>
			<path class="st20" d="M549.9,281.8h1.7v1.5h-1.7V281.8z M550,284.3h1.6v6.8H550V284.3z"/>
		</g>
		<g>
			<path class="st20" d="M509.1,355.1h1.5l4,9.1h-1.7l-0.9-2.2h-4.3l-0.9,2.2h-1.6L509.1,355.1z M511.3,360.6l-1.6-3.6l-1.5,3.6
				H511.3z"/>
			<path class="st20" d="M515.8,357.3h1.6v1.5c0.4-1,1.2-1.7,2.4-1.7v1.6h-0.1c-1.4,0-2.3,0.9-2.3,2.7v2.6h-1.6V357.3z"/>
			<path class="st20" d="M521.1,354.7h1.6v5.6l2.8-3h1.9l-2.7,2.8l2.8,4h-1.8l-2-2.9l-1,1v1.9h-1.6V354.7z"/>
			<path class="st20" d="M528,362.2L528,362.2c0-1.5,1.1-2.2,2.8-2.2c0.8,0,1.3,0.1,1.8,0.3v-0.2c0-1-0.6-1.5-1.7-1.5
				c-0.8,0-1.3,0.2-1.9,0.4l-0.4-1.2c0.7-0.3,1.5-0.6,2.6-0.6c1,0,1.8,0.3,2.2,0.8c0.5,0.5,0.7,1.2,0.7,2.1v4h-1.5v-0.8
				c-0.5,0.6-1.2,1-2.2,1C529.2,364.3,528,363.5,528,362.2z M532.7,361.7v-0.5c-0.4-0.2-0.9-0.3-1.5-0.3c-1,0-1.6,0.4-1.6,1.1v0
				c0,0.7,0.6,1,1.3,1C531.9,363.1,532.7,362.5,532.7,361.7z"/>
			<path class="st20" d="M536,357.3h1.6v1c0.4-0.6,1.1-1.2,2.1-1.2c1.5,0,2.4,1,2.4,2.6v4.3h-1.6v-3.9c0-1.1-0.5-1.7-1.5-1.7
				c-0.9,0-1.5,0.6-1.5,1.7v3.8H536V357.3z"/>
			<path class="st20" d="M543.5,363.2l0.7-1.1c0.7,0.6,1.5,0.8,2.2,0.8c0.7,0,1.1-0.3,1.1-0.7v0c0-0.5-0.7-0.7-1.5-1
				c-1-0.3-2.1-0.7-2.1-2v0c0-1.3,1.1-2.1,2.4-2.1c0.8,0,1.8,0.3,2.5,0.8l-0.6,1.1c-0.7-0.4-1.3-0.6-1.9-0.6c-0.6,0-1,0.3-1,0.7v0
				c0,0.5,0.7,0.7,1.5,1c1,0.3,2.1,0.8,2.1,2v0c0,1.4-1.1,2.1-2.5,2.1C545.4,364.3,544.3,363.9,543.5,363.2z"/>
			<path class="st20" d="M550,362.2L550,362.2c0-1.5,1.1-2.2,2.8-2.2c0.8,0,1.3,0.1,1.8,0.3v-0.2c0-1-0.6-1.5-1.7-1.5
				c-0.8,0-1.3,0.2-1.9,0.4l-0.4-1.2c0.7-0.3,1.5-0.6,2.6-0.6c1,0,1.8,0.3,2.2,0.8c0.5,0.5,0.7,1.2,0.7,2.1v4h-1.5v-0.8
				c-0.5,0.6-1.2,1-2.2,1C551.1,364.3,550,363.5,550,362.2z M554.6,361.7v-0.5c-0.4-0.2-0.9-0.3-1.5-0.3c-1,0-1.6,0.4-1.6,1.1v0
				c0,0.7,0.6,1,1.3,1C553.9,363.1,554.6,362.5,554.6,361.7z"/>
			<path class="st20" d="M557.4,363.2l0.7-1.1c0.7,0.6,1.5,0.8,2.2,0.8c0.7,0,1.1-0.3,1.1-0.7v0c0-0.5-0.7-0.7-1.5-1
				c-1-0.3-2.1-0.7-2.1-2v0c0-1.3,1.1-2.1,2.4-2.1c0.8,0,1.8,0.3,2.5,0.8l-0.6,1.1c-0.7-0.4-1.3-0.6-1.9-0.6c-0.6,0-1,0.3-1,0.7v0
				c0,0.5,0.7,0.7,1.5,1c1,0.3,2.1,0.8,2.1,2v0c0,1.4-1.1,2.1-2.5,2.1C559.3,364.3,558.3,363.9,557.4,363.2z"/>
		</g>
		<g>
			<path class="st20" d="M520.7,460.1h1.6v7.6h4.7v1.4h-6.3V460.1z"/>
			<path class="st20" d="M528,465.8L528,465.8c0-2,1.5-3.6,3.6-3.6s3.6,1.6,3.6,3.5v0c0,1.9-1.5,3.5-3.6,3.5
				C529.5,469.3,528,467.7,528,465.8z M533.6,465.8L533.6,465.8c0-1.2-0.9-2.2-2.1-2.2c-1.2,0-2,1-2,2.2v0c0,1.2,0.9,2.2,2.1,2.2
				C532.9,467.9,533.6,466.9,533.6,465.8z"/>
			<path class="st20" d="M536.7,466.7v-4.3h1.6v3.9c0,1.1,0.5,1.6,1.5,1.6c0.9,0,1.5-0.6,1.5-1.7v-3.8h1.6v6.8h-1.6v-1.1
				c-0.4,0.6-1.1,1.2-2.1,1.2C537.6,469.3,536.7,468.2,536.7,466.7z"/>
			<path class="st20" d="M544.8,459.8h1.7v1.5h-1.7V459.8z M544.8,462.3h1.6v6.8h-1.6V462.3z"/>
			<path class="st20" d="M547.9,468.2l0.7-1.1c0.7,0.6,1.5,0.8,2.2,0.8c0.7,0,1.1-0.3,1.1-0.7v0c0-0.5-0.7-0.7-1.5-1
				c-1-0.3-2.1-0.7-2.1-2v0c0-1.3,1.1-2.1,2.4-2.1c0.8,0,1.8,0.3,2.5,0.8l-0.6,1.1c-0.7-0.4-1.3-0.6-1.9-0.6c-0.6,0-1,0.3-1,0.7v0
				c0,0.5,0.7,0.7,1.5,1c1,0.3,2.1,0.8,2.1,2v0c0,1.4-1.1,2.1-2.5,2.1C549.8,469.3,548.7,468.9,547.9,468.2z"/>
			<path class="st20" d="M554.9,459.8h1.7v1.5h-1.7V459.8z M555,462.3h1.6v6.8H555V462.3z"/>
			<path class="st20" d="M558.1,467.2L558.1,467.2c0-1.5,1.1-2.2,2.8-2.2c0.8,0,1.3,0.1,1.8,0.3v-0.2c0-1-0.6-1.5-1.7-1.5
				c-0.8,0-1.3,0.2-1.9,0.4l-0.4-1.2c0.7-0.3,1.5-0.6,2.6-0.6c1,0,1.8,0.3,2.2,0.8c0.5,0.5,0.7,1.2,0.7,2.1v4h-1.5v-0.8
				c-0.5,0.6-1.2,1-2.2,1C559.2,469.3,558.1,468.5,558.1,467.2z M562.7,466.7v-0.5c-0.4-0.2-0.9-0.3-1.5-0.3c-1,0-1.6,0.4-1.6,1.1v0
				c0,0.7,0.6,1,1.3,1C562,468.1,562.7,467.5,562.7,466.7z"/>
			<path class="st20" d="M566.1,462.3h1.6v1c0.4-0.6,1.1-1.2,2.1-1.2c1.5,0,2.4,1,2.4,2.6v4.3h-1.6v-3.9c0-1.1-0.5-1.7-1.5-1.7
				c-0.9,0-1.5,0.6-1.5,1.7v3.8h-1.6V462.3z"/>
			<path class="st20" d="M573.6,467.2L573.6,467.2c0-1.5,1.1-2.2,2.8-2.2c0.8,0,1.3,0.1,1.8,0.3v-0.2c0-1-0.6-1.5-1.7-1.5
				c-0.8,0-1.3,0.2-1.9,0.4l-0.4-1.2c0.7-0.3,1.5-0.6,2.6-0.6c1,0,1.8,0.3,2.2,0.8c0.5,0.5,0.7,1.2,0.7,2.1v4h-1.5v-0.8
				c-0.5,0.6-1.2,1-2.2,1C574.7,469.3,573.6,468.5,573.6,467.2z M578.3,466.7v-0.5c-0.4-0.2-0.9-0.3-1.5-0.3c-1,0-1.6,0.4-1.6,1.1v0
				c0,0.7,0.6,1,1.3,1C577.5,468.1,578.3,467.5,578.3,466.7z"/>
		</g>
		<g>
			<path class="st20" d="M356.3,156.3l1-1.1c0.9,0.7,1.7,1.2,2.8,1.2c1,0,1.6-0.5,1.6-1.1v0c0-0.6-0.4-1-2-1.4c-1.9-0.5-3-1-3-2.7v0
				c0-1.5,1.3-2.6,3.1-2.6c1.3,0,2.4,0.4,3.3,1.1l-0.8,1.2c-0.8-0.6-1.6-0.9-2.4-0.9c-0.9,0-1.5,0.5-1.5,1.1v0c0,0.7,0.4,1,2.1,1.4
				c1.9,0.5,2.9,1.1,2.9,2.6v0c0,1.7-1.3,2.7-3.2,2.7C358.6,157.8,357.3,157.3,356.3,156.3z"/>
			<path class="st20" d="M364.5,154.3L364.5,154.3c0-2,1.5-3.6,3.6-3.6c2.1,0,3.6,1.6,3.6,3.5v0c0,1.9-1.5,3.5-3.6,3.5
				C366.1,157.8,364.5,156.2,364.5,154.3z M370.2,154.3L370.2,154.3c0-1.2-0.9-2.2-2.1-2.2c-1.2,0-2,1-2,2.2v0
				c0,1.2,0.9,2.2,2.1,2.2C369.4,156.4,370.2,155.4,370.2,154.3z"/>
			<path class="st20" d="M373.3,155.2v-4.3h1.6v3.9c0,1.1,0.5,1.6,1.5,1.6c0.9,0,1.5-0.6,1.5-1.7v-3.8h1.6v6.8h-1.6v-1.1
				c-0.4,0.6-1.1,1.2-2.1,1.2C374.2,157.8,373.3,156.7,373.3,155.2z"/>
			<path class="st20" d="M381.6,155.8v-3.6h-0.9v-1.3h0.9V149h1.6v1.9h1.8v1.3h-1.8v3.3c0,0.6,0.3,0.8,0.8,0.8c0.3,0,0.7-0.1,1-0.2
				v1.3c-0.4,0.2-0.8,0.3-1.4,0.3C382.4,157.7,381.6,157.2,381.6,155.8z"/>
			<path class="st20" d="M386.6,148.3h1.6v3.6c0.4-0.6,1.1-1.2,2.1-1.2c1.5,0,2.4,1,2.4,2.6v4.3h-1.6v-3.9c0-1.1-0.5-1.7-1.5-1.7
				c-0.9,0-1.5,0.6-1.5,1.7v3.8h-1.6V148.3z"/>
			<path class="st20" d="M398.6,148.6h3.4c2.8,0,4.8,1.9,4.8,4.5v0c0,2.5-2,4.5-4.8,4.5h-3.4V148.6z M400.2,150.1v6.1h1.8
				c1.9,0,3.1-1.3,3.1-3v0c0-1.8-1.2-3.1-3.1-3.1H400.2z"/>
			<path class="st20" d="M408,155.7L408,155.7c0-1.5,1.1-2.2,2.8-2.2c0.8,0,1.3,0.1,1.8,0.3v-0.2c0-1-0.6-1.5-1.7-1.5
				c-0.8,0-1.3,0.2-1.9,0.4l-0.4-1.2c0.7-0.3,1.5-0.6,2.6-0.6c1,0,1.8,0.3,2.2,0.8c0.5,0.5,0.7,1.2,0.7,2.1v4h-1.5v-0.8
				c-0.5,0.6-1.2,1-2.2,1C409.1,157.8,408,157,408,155.7z M412.7,155.2v-0.5c-0.4-0.2-0.9-0.3-1.5-0.3c-1,0-1.6,0.4-1.6,1.1v0
				c0,0.7,0.6,1,1.3,1C411.9,156.6,412.7,156.1,412.7,155.2z"/>
			<path class="st20" d="M416,148.3h1.6v5.6l2.8-3h1.9l-2.7,2.8l2.8,4h-1.8l-2-2.9l-1,1v1.9H416V148.3z"/>
			<path class="st20" d="M422.8,154.3L422.8,154.3c0-2,1.5-3.6,3.6-3.6c2.1,0,3.6,1.6,3.6,3.5v0c0,1.9-1.5,3.5-3.6,3.5
				C424.3,157.8,422.8,156.2,422.8,154.3z M428.5,154.3L428.5,154.3c0-1.2-0.9-2.2-2.1-2.2c-1.2,0-2,1-2,2.2v0
				c0,1.2,0.9,2.2,2.1,2.2C427.7,156.4,428.5,155.4,428.5,154.3z"/>
			<path class="st20" d="M431.9,155.8v-3.6h-0.9v-1.3h0.9V149h1.6v1.9h1.8v1.3h-1.8v3.3c0,0.6,0.3,0.8,0.8,0.8c0.3,0,0.7-0.1,1-0.2
				v1.3c-0.4,0.2-0.8,0.3-1.4,0.3C432.7,157.7,431.9,157.2,431.9,155.8z"/>
			<path class="st20" d="M436.4,155.7L436.4,155.7c0-1.5,1.1-2.2,2.8-2.2c0.8,0,1.3,0.1,1.8,0.3v-0.2c0-1-0.6-1.5-1.7-1.5
				c-0.8,0-1.3,0.2-1.9,0.4l-0.4-1.2c0.7-0.3,1.5-0.6,2.6-0.6c1,0,1.8,0.3,2.2,0.8c0.5,0.5,0.7,1.2,0.7,2.1v4h-1.5v-0.8
				c-0.5,0.6-1.2,1-2.2,1C437.6,157.8,436.4,157,436.4,155.7z M441.1,155.2v-0.5c-0.4-0.2-0.9-0.3-1.5-0.3c-1,0-1.6,0.4-1.6,1.1v0
				c0,0.7,0.6,1,1.3,1C440.3,156.6,441.1,156.1,441.1,155.2z"/>
		</g>
		<g>
			<path class="st20" d="M383.5,212.1h1.5l4.8,6.2v-6.2h1.6v9h-1.3l-5-6.4v6.4h-1.6V212.1z"/>
			<path class="st20" d="M393.1,217.8L393.1,217.8c0-2,1.4-3.6,3.3-3.6c2.2,0,3.3,1.7,3.3,3.6c0,0.1,0,0.3,0,0.4h-5
				c0.2,1.1,1,1.7,2,1.7c0.8,0,1.3-0.3,1.8-0.8l0.9,0.8c-0.6,0.8-1.5,1.3-2.8,1.3C394.7,221.3,393.1,219.9,393.1,217.8z
				 M398.2,217.3c-0.1-1-0.7-1.8-1.7-1.8c-1,0-1.6,0.7-1.8,1.8H398.2z"/>
			<path class="st20" d="M402.8,220.1v1.1h-1.6v-9.4h1.6v3.7c0.5-0.7,1.2-1.3,2.3-1.3c1.6,0,3.1,1.3,3.1,3.5v0
				c0,2.2-1.5,3.5-3.1,3.5C404,221.3,403.3,220.7,402.8,220.1z M406.7,217.8L406.7,217.8c0-1.3-0.9-2.2-1.9-2.2c-1.1,0-2,0.9-2,2.2
				v0c0,1.3,0.9,2.2,2,2.2C405.8,219.9,406.7,219.1,406.7,217.8z"/>
			<path class="st20" d="M409.9,214.3h1.6v1.5c0.4-1,1.2-1.7,2.4-1.7v1.6h-0.1c-1.4,0-2.3,0.9-2.3,2.7v2.6h-1.6V214.3z"/>
			<path class="st20" d="M414.4,219.2L414.4,219.2c0-1.5,1.1-2.2,2.8-2.2c0.8,0,1.3,0.1,1.8,0.3v-0.2c0-1-0.6-1.5-1.7-1.5
				c-0.8,0-1.3,0.2-1.9,0.4l-0.4-1.2c0.7-0.3,1.5-0.6,2.6-0.6c1,0,1.8,0.3,2.2,0.8c0.5,0.5,0.7,1.2,0.7,2.1v4H419v-0.8
				c-0.5,0.6-1.2,1-2.2,1C415.6,221.3,414.4,220.5,414.4,219.2z M419.1,218.7v-0.5c-0.4-0.2-0.9-0.3-1.5-0.3c-1,0-1.6,0.4-1.6,1.1v0
				c0,0.7,0.6,1,1.3,1C418.3,220.1,419.1,219.6,419.1,218.7z"/>
			<path class="st20" d="M421.9,220.2l0.7-1.1c0.7,0.6,1.5,0.8,2.2,0.8c0.7,0,1.1-0.3,1.1-0.7v0c0-0.5-0.7-0.7-1.5-1
				c-1-0.3-2.1-0.7-2.1-2v0c0-1.3,1.1-2.1,2.4-2.1c0.8,0,1.8,0.3,2.5,0.8l-0.6,1.1c-0.7-0.4-1.3-0.6-1.9-0.6c-0.6,0-1,0.3-1,0.7v0
				c0,0.5,0.7,0.7,1.5,1c1,0.3,2.1,0.8,2.1,2v0c0,1.4-1.1,2.1-2.5,2.1C423.8,221.3,422.7,220.9,421.9,220.2z"/>
			<path class="st20" d="M428.9,211.8h1.6v5.6l2.8-3h1.9l-2.7,2.8l2.8,4h-1.8l-2-2.9l-1,1v1.9h-1.6V211.8z"/>
			<path class="st20" d="M435.8,219.2L435.8,219.2c0-1.5,1.1-2.2,2.8-2.2c0.8,0,1.3,0.1,1.8,0.3v-0.2c0-1-0.6-1.5-1.7-1.5
				c-0.8,0-1.3,0.2-1.9,0.4l-0.4-1.2c0.7-0.3,1.5-0.6,2.6-0.6c1,0,1.8,0.3,2.2,0.8c0.5,0.5,0.7,1.2,0.7,2.1v4h-1.5v-0.8
				c-0.5,0.6-1.2,1-2.2,1C436.9,221.3,435.8,220.5,435.8,219.2z M440.4,218.7v-0.5c-0.4-0.2-0.9-0.3-1.5-0.3c-1,0-1.6,0.4-1.6,1.1v0
				c0,0.7,0.6,1,1.3,1C439.6,220.1,440.4,219.6,440.4,218.7z"/>
		</g>
		<g>
			<path class="st20" d="M412.2,284.1h1.6v4.5l4.3-4.5h2l-3.8,3.9l3.9,5.1h-1.9l-3.1-4l-1.4,1.4v2.6h-1.6V284.1z"/>
			<path class="st20" d="M420.7,291.2L420.7,291.2c0-1.5,1.1-2.2,2.8-2.2c0.8,0,1.3,0.1,1.8,0.3v-0.2c0-1-0.6-1.5-1.7-1.5
				c-0.8,0-1.3,0.2-1.9,0.4l-0.4-1.2c0.7-0.3,1.5-0.6,2.6-0.6c1,0,1.8,0.3,2.2,0.8c0.5,0.5,0.7,1.2,0.7,2.1v4h-1.5v-0.8
				c-0.5,0.6-1.2,1-2.2,1C421.9,293.3,420.7,292.5,420.7,291.2z M425.4,290.7v-0.5c-0.4-0.2-0.9-0.3-1.5-0.3c-1,0-1.6,0.4-1.6,1.1v0
				c0,0.7,0.6,1,1.3,1C424.6,292.1,425.4,291.5,425.4,290.7z"/>
			<path class="st20" d="M428.7,286.3h1.6v1c0.4-0.6,1.1-1.2,2.1-1.2c1.5,0,2.4,1,2.4,2.6v4.3h-1.6v-3.9c0-1.1-0.5-1.7-1.5-1.7
				c-0.9,0-1.5,0.6-1.5,1.7v3.8h-1.6V286.3z"/>
			<path class="st20" d="M436.2,292.2l0.7-1.1c0.7,0.6,1.5,0.8,2.2,0.8c0.7,0,1.1-0.3,1.1-0.7v0c0-0.5-0.7-0.7-1.5-1
				c-1-0.3-2.1-0.7-2.1-2v0c0-1.3,1.1-2.1,2.4-2.1c0.8,0,1.8,0.3,2.5,0.8l-0.6,1.1c-0.7-0.4-1.3-0.6-1.9-0.6c-0.6,0-1,0.3-1,0.7v0
				c0,0.5,0.7,0.7,1.5,1c1,0.3,2.1,0.8,2.1,2v0c0,1.4-1.1,2.1-2.5,2.1C438.1,293.3,437,292.9,436.2,292.2z"/>
			<path class="st20" d="M442.7,291.2L442.7,291.2c0-1.5,1.1-2.2,2.8-2.2c0.8,0,1.3,0.1,1.8,0.3v-0.2c0-1-0.6-1.5-1.7-1.5
				c-0.8,0-1.3,0.2-1.9,0.4l-0.4-1.2c0.7-0.3,1.5-0.6,2.6-0.6c1,0,1.8,0.3,2.2,0.8c0.5,0.5,0.7,1.2,0.7,2.1v4h-1.5v-0.8
				c-0.5,0.6-1.2,1-2.2,1C443.8,293.3,442.7,292.5,442.7,291.2z M447.3,290.7v-0.5c-0.4-0.2-0.9-0.3-1.5-0.3c-1,0-1.6,0.4-1.6,1.1v0
				c0,0.7,0.6,1,1.3,1C446.6,292.1,447.3,291.5,447.3,290.7z"/>
			<path class="st20" d="M450.1,292.2l0.7-1.1c0.7,0.6,1.5,0.8,2.2,0.8c0.7,0,1.1-0.3,1.1-0.7v0c0-0.5-0.7-0.7-1.5-1
				c-1-0.3-2.1-0.7-2.1-2v0c0-1.3,1.1-2.1,2.4-2.1c0.8,0,1.8,0.3,2.5,0.8l-0.6,1.1c-0.7-0.4-1.3-0.6-1.9-0.6c-0.6,0-1,0.3-1,0.7v0
				c0,0.5,0.7,0.7,1.5,1c1,0.3,2.1,0.8,2.1,2v0c0,1.4-1.1,2.1-2.5,2.1C452,293.3,451,292.9,450.1,292.2z"/>
		</g>
		<g>
			<path class="st20" d="M413.9,351.7L413.9,351.7c0-2.6,2-4.7,4.7-4.7s4.7,2.1,4.7,4.6v0c0,2.5-2,4.7-4.7,4.7
				C415.9,356.3,413.9,354.2,413.9,351.7z M421.7,351.7L421.7,351.7c0-1.8-1.3-3.2-3.1-3.2c-1.8,0-3,1.4-3,3.2v0
				c0,1.7,1.3,3.2,3.1,3.2C420.5,354.8,421.7,353.4,421.7,351.7z"/>
			<path class="st20" d="M425.1,346.7h1.6v5.6l2.8-3h1.9l-2.7,2.8l2.8,4h-1.8l-2-2.9l-1,1v1.9h-1.6V346.7z"/>
			<path class="st20" d="M432.7,346.7h1.6v9.4h-1.6V346.7z"/>
			<path class="st20" d="M435.8,354.2L435.8,354.2c0-1.5,1.1-2.2,2.8-2.2c0.8,0,1.3,0.1,1.8,0.3v-0.2c0-1-0.6-1.5-1.7-1.5
				c-0.8,0-1.3,0.2-1.9,0.4l-0.4-1.2c0.7-0.3,1.5-0.6,2.6-0.6c1,0,1.8,0.3,2.2,0.8c0.5,0.5,0.7,1.2,0.7,2.1v4h-1.5v-0.8
				c-0.5,0.6-1.2,1-2.2,1C436.9,356.3,435.8,355.5,435.8,354.2z M440.4,353.7v-0.5c-0.4-0.2-0.9-0.3-1.5-0.3c-1,0-1.6,0.4-1.6,1.1v0
				c0,0.7,0.6,1,1.3,1C439.7,355.1,440.4,354.5,440.4,353.7z"/>
			<path class="st20" d="M443.8,346.7h1.6v3.6c0.4-0.6,1.1-1.2,2.1-1.2c1.5,0,2.4,1,2.4,2.6v4.3h-1.6v-3.9c0-1.1-0.5-1.7-1.5-1.7
				c-0.9,0-1.5,0.6-1.5,1.7v3.8h-1.6V346.7z"/>
			<path class="st20" d="M451.4,352.8L451.4,352.8c0-2,1.5-3.6,3.6-3.6c2.1,0,3.6,1.6,3.6,3.5v0c0,1.9-1.5,3.5-3.6,3.5
				C452.9,356.3,451.4,354.7,451.4,352.8z M457.1,352.8L457.1,352.8c0-1.2-0.9-2.2-2.1-2.2c-1.2,0-2,1-2,2.2v0
				c0,1.2,0.9,2.2,2.1,2.2C456.3,354.9,457.1,353.9,457.1,352.8z"/>
			<path class="st20" d="M460.2,349.3h1.6v1c0.4-0.6,1-1.2,2.1-1.2c1,0,1.7,0.5,2,1.2c0.5-0.7,1.3-1.2,2.3-1.2
				c1.5,0,2.4,0.9,2.4,2.6v4.3H469v-3.9c0-1.1-0.5-1.7-1.4-1.7c-0.8,0-1.5,0.6-1.5,1.7v3.8h-1.6v-3.9c0-1.1-0.5-1.6-1.4-1.6
				s-1.5,0.6-1.5,1.7v3.8h-1.6V349.3z"/>
			<path class="st20" d="M472,354.2L472,354.2c0-1.5,1.1-2.2,2.8-2.2c0.8,0,1.3,0.1,1.8,0.3v-0.2c0-1-0.6-1.5-1.7-1.5
				c-0.8,0-1.3,0.2-1.9,0.4l-0.4-1.2c0.7-0.3,1.5-0.6,2.6-0.6c1,0,1.8,0.3,2.2,0.8c0.5,0.5,0.7,1.2,0.7,2.1v4h-1.5v-0.8
				c-0.5,0.6-1.2,1-2.2,1C473.1,356.3,472,355.5,472,354.2z M476.6,353.7v-0.5c-0.4-0.2-0.9-0.3-1.5-0.3c-1,0-1.6,0.4-1.6,1.1v0
				c0,0.7,0.6,1,1.3,1C475.8,355.1,476.6,354.5,476.6,353.7z"/>
		</g>
	</g>
</g>
</svg>
